<svg xmlns="http://www.w3.org/2000/svg" width="98" height="97" fill="none"><g clip-path="url(#a)"><circle cx="49" cy="48.1" r="46.8" fill="#F1F7F9" stroke="#34777C" stroke-width="2.6"/><g clip-path="url(#b)"><mask id="c" fill="#fff"><path d="M48.724 17.318q-1.644 0-3.278.177a29 29 0 0 0-3.52.596 30.55 30.55 0 0 0-16.19 9.645c-11.092 12.735-9.76 32.05 2.974 43.143 12.192 10.62 30.544 9.913 41.883-1.613q.574-.587 1.12-1.209a30.53 30.53 0 0 0 7.59-20.16c0-16.888-13.691-30.579-30.58-30.579M28.217 28.056c.16-.167.328-.327.492-.489.19-.186.378-.374.572-.554.17-.16.345-.312.52-.467.196-.174.392-.349.594-.517.177-.15.36-.294.541-.438q.305-.246.618-.483.278-.21.564-.408c.21-.15.422-.306.638-.447a27 27 0 0 1 1.241-.79 34 34 0 0 1 1.281-.726q.306-.163.612-.32a30 30 0 0 1 1.328-.626l.725-.306q.314-.13.634-.253.37-.138.746-.269.319-.113.642-.219.382-.12.766-.231c.216-.062.429-.127.645-.185.082-.021.165-.038.247-.06a25.3 25.3 0 0 0-6.514 10.578 34.2 34.2 0 0 1-6.984-2.688q.049-.054.092-.102m-1.466 1.642a35.4 35.4 0 0 0 7.735 3.078 53 53 0 0 0-2.058 14.102h-12.22a28.48 28.48 0 0 1 6.543-17.18m0 36.398a28.48 28.48 0 0 1-6.544-17.18h12.221a52.9 52.9 0 0 0 2.058 14.102 35.4 35.4 0 0 0-7.735 3.078M41.37 75.47c-.206-.052-.42-.12-.631-.182q-.388-.11-.772-.233-.322-.106-.64-.218a24 24 0 0 1-1.38-.521l-.728-.306a27 27 0 0 1-.62-.283 45 45 0 0 1-.714-.345 28.09 28.09 0 0 1-2.557-1.458 27 27 0 0 1-.579-.376q-.325-.222-.645-.453-.28-.198-.556-.408a26 26 0 0 1-.624-.488q-.271-.214-.536-.434c-.204-.17-.4-.346-.599-.521q-.261-.23-.516-.463c-.195-.181-.384-.37-.573-.556-.164-.162-.331-.322-.492-.489l-.088-.094a34.2 34.2 0 0 1 6.984-2.69 25.3 25.3 0 0 0 6.514 10.579q-.124-.03-.248-.061m6.335.887c-4.362-.62-8.185-5.172-10.591-11.894a51.8 51.8 0 0 1 10.59-1.247zm0-15.18c-3.78.05-7.545.499-11.231 1.34a51 51 0 0 1-2.007-13.6h13.238zm0-14.3H34.467a51 51 0 0 1 2.007-13.6c3.686.84 7.45 1.29 11.23 1.34zm0-14.299a51.7 51.7 0 0 1-10.591-1.247c2.406-6.722 6.229-11.274 10.59-11.894zm22.992-2.88a28.5 28.5 0 0 1 6.543 17.18H65.02a52.9 52.9 0 0 0-2.059-14.102 35.5 35.5 0 0 0 7.736-3.079M56.07 20.323c.214.053.427.12.639.183q.389.11.771.233.323.106.64.218a24 24 0 0 1 1.38.521l.728.306q.312.137.621.283.355.167.714.345a28.09 28.09 0 0 1 2.557 1.458q.291.184.578.376.325.221.644.452a24 24 0 0 1 1.182.895q.27.212.536.434c.204.17.4.346.598.52.173.155.348.307.517.464.195.181.383.37.573.556.164.162.331.322.492.488q.044.049.088.095a34.2 34.2 0 0 1-6.985 2.69 25.3 25.3 0 0 0-6.522-10.578q.124.03.249.061m-6.327-.886c4.362.62 8.185 5.172 10.59 11.894a51.8 51.8 0 0 1-10.59 1.247zm0 15.18c3.78-.05 7.545-.5 11.23-1.34a51 51 0 0 1 2.008 13.6H49.743zm0 14.3h13.238a51 51 0 0 1-2.007 13.6 53.7 53.7 0 0 0-11.23-1.34zm0 27.44V63.216c3.564.05 7.113.467 10.59 1.247-2.405 6.722-6.228 11.274-10.59 11.894m19.488-8.62c-.161.167-.327.327-.491.489-.19.186-.38.375-.574.556-.17.158-.344.306-.517.464q-.296.264-.596.52c-.179.149-.36.292-.542.437q-.303.246-.617.483-.279.21-.564.408c-.21.15-.423.306-.638.446q-.29.195-.583.382-.327.21-.66.407c-.203.12-.398.236-.599.351a30 30 0 0 1-1.995 1.037c-.203.097-.415.193-.625.285l-.725.306q-.316.129-.633.252-.373.14-.75.27-.316.112-.638.218-.381.122-.77.232a27 27 0 0 1-.642.185c-.083.021-.165.038-.248.06a25.3 25.3 0 0 0 6.514-10.578c2.42.638 4.762 1.539 6.985 2.688q-.05.055-.092.102m1.466-1.64a35.4 35.4 0 0 0-7.736-3.079 53 53 0 0 0 2.058-14.102H77.24a28.48 28.48 0 0 1-6.543 17.18"/></mask><path fill="#34777C" stroke="#fff" stroke-width=".962" d="M48.724 17.318q-1.644 0-3.278.177a29 29 0 0 0-3.52.596 30.55 30.55 0 0 0-16.19 9.645c-11.092 12.735-9.76 32.05 2.974 43.143 12.192 10.62 30.544 9.913 41.883-1.613q.574-.587 1.12-1.209a30.53 30.53 0 0 0 7.59-20.16c0-16.888-13.691-30.579-30.58-30.579ZM28.217 28.056c.16-.167.328-.327.492-.489.19-.186.378-.374.572-.554.17-.16.345-.312.52-.467.196-.174.392-.349.594-.517.177-.15.36-.294.541-.438q.305-.246.618-.483.278-.21.564-.408c.21-.15.422-.306.638-.447a27 27 0 0 1 1.241-.79 34 34 0 0 1 1.281-.726q.306-.163.612-.32a30 30 0 0 1 1.328-.626l.725-.306q.314-.13.634-.253.37-.138.746-.269.319-.113.642-.219.382-.12.766-.231c.216-.062.429-.127.645-.185.082-.021.165-.038.247-.06a25.3 25.3 0 0 0-6.514 10.578 34.2 34.2 0 0 1-6.984-2.688q.049-.054.092-.102Zm-1.466 1.642a35.4 35.4 0 0 0 7.735 3.078 53 53 0 0 0-2.058 14.102h-12.22a28.48 28.48 0 0 1 6.543-17.18Zm0 36.398a28.48 28.48 0 0 1-6.544-17.18h12.221a52.9 52.9 0 0 0 2.058 14.102 35.4 35.4 0 0 0-7.735 3.078ZM41.37 75.47c-.206-.052-.42-.12-.631-.182q-.388-.11-.772-.233-.322-.106-.64-.218a24 24 0 0 1-1.38-.521l-.728-.306a27 27 0 0 1-.62-.283 45 45 0 0 1-.714-.345 28.09 28.09 0 0 1-2.557-1.458 27 27 0 0 1-.579-.376q-.325-.222-.645-.453-.28-.198-.556-.408a26 26 0 0 1-.624-.488q-.271-.214-.536-.434c-.204-.17-.4-.346-.599-.521q-.261-.23-.516-.463c-.195-.181-.384-.37-.573-.556-.164-.162-.331-.322-.492-.489l-.088-.094a34.2 34.2 0 0 1 6.984-2.69 25.3 25.3 0 0 0 6.514 10.579q-.124-.03-.248-.061Zm6.335.887c-4.362-.62-8.185-5.172-10.591-11.894a51.8 51.8 0 0 1 10.59-1.247zm0-15.18c-3.78.05-7.545.499-11.231 1.34a51 51 0 0 1-2.007-13.6h13.238zm0-14.3H34.467a51 51 0 0 1 2.007-13.6c3.686.84 7.45 1.29 11.23 1.34zm0-14.299a51.7 51.7 0 0 1-10.591-1.247c2.406-6.722 6.229-11.274 10.59-11.894zm22.992-2.88a28.5 28.5 0 0 1 6.543 17.18H65.02a52.9 52.9 0 0 0-2.059-14.102 35.5 35.5 0 0 0 7.736-3.079ZM56.07 20.323c.214.053.427.12.639.183q.389.11.771.233.323.106.64.218a24 24 0 0 1 1.38.521l.728.306q.312.137.621.283.355.167.714.345a28.09 28.09 0 0 1 2.557 1.458q.291.184.578.376.325.221.644.452a24 24 0 0 1 1.182.895q.27.212.536.434c.204.17.4.346.598.52.173.155.348.307.517.464.195.181.383.37.573.556.164.162.331.322.492.488q.044.049.088.095a34.2 34.2 0 0 1-6.985 2.69 25.3 25.3 0 0 0-6.522-10.578q.124.03.249.061Zm-6.327-.886c4.362.62 8.185 5.172 10.59 11.894a51.8 51.8 0 0 1-10.59 1.247zm0 15.18c3.78-.05 7.545-.5 11.23-1.34a51 51 0 0 1 2.008 13.6H49.743zm0 14.3h13.238a51 51 0 0 1-2.007 13.6 53.7 53.7 0 0 0-11.23-1.34zm0 27.44V63.216c3.564.05 7.113.467 10.59 1.247-2.405 6.722-6.228 11.274-10.59 11.894Zm19.488-8.62c-.161.167-.327.327-.491.489-.19.186-.38.375-.574.556-.17.158-.344.306-.517.464q-.296.264-.596.52c-.179.149-.36.292-.542.437q-.303.246-.617.483-.279.21-.564.408c-.21.15-.423.306-.638.446q-.29.195-.583.382-.327.21-.66.407c-.203.12-.398.236-.599.351a30 30 0 0 1-1.995 1.037c-.203.097-.415.193-.625.285l-.725.306q-.316.129-.633.252-.373.14-.75.27-.316.112-.638.218-.381.122-.77.232a27 27 0 0 1-.642.185c-.083.021-.165.038-.248.06a25.3 25.3 0 0 0 6.514-10.578c2.42.638 4.762 1.539 6.985 2.688q-.05.055-.092.102Zm1.466-1.64a35.4 35.4 0 0 0-7.736-3.079 53 53 0 0 0 2.058-14.102H77.24a28.48 28.48 0 0 1-6.543 17.18Z" mask="url(#c)"/></g><path fill="#F1F7F9" d="M4.8 37.7h88.4v20.8H4.8z"/><path stroke="#34777C" stroke-width="2.6" d="M.9 36.4h96.2v23.4H.9z"/><path fill="#35777C" d="M8.455 42.337v13.104H5.852V42.337zm12.255 9.319c0 2.53-2.257 3.95-5.15 3.95-3.331 0-5.37-1.602-5.37-4.023h2.64c0 1.074.891 1.838 2.73 1.838 1.455 0 2.438-.655 2.438-1.692 0-.91-.546-1.347-1.82-1.584l-2.056-.4c-2.348-.437-3.64-1.693-3.64-3.658 0-2.22 1.838-3.932 4.968-3.932 2.566 0 5.042 1.092 5.042 3.986h-2.567c0-1.31-1.073-1.856-2.511-1.856-1.383 0-2.257.619-2.257 1.565 0 .855.528 1.329 1.93 1.602l2.074.382c2.42.473 3.549 1.765 3.549 3.822m7.673 3.967c-3.804 0-6.388-2.766-6.388-6.715 0-3.968 2.584-6.753 6.388-6.753s6.37 2.785 6.37 6.753c0 3.949-2.566 6.715-6.37 6.715m0-2.457c2.275 0 3.585-1.656 3.585-4.258 0-2.621-1.31-4.296-3.585-4.296-2.293 0-3.622 1.675-3.622 4.296 0 2.62 1.329 4.258 3.622 4.258m16.871 2.275V53.04h-6.06V50.8l5.933-8.463h2.712V50.8h1.729v2.239h-1.73v2.402zm-3.512-4.64h3.512v-4.878zm14.089-4.387c2.639 0 4.495 1.784 4.495 4.514 0 2.948-2.129 4.695-4.914 4.695-2.475 0-4.713-1.383-4.786-4.24h2.42c.073 1.274.983 2.056 2.275 2.056 1.42 0 2.348-.982 2.348-2.475 0-1.474-.928-2.493-2.33-2.493-1.182 0-1.965.764-2.202 1.42h-2.402l1.365-7.554h7.571v2.203h-5.624l-.527 2.548c.473-.4 1.183-.674 2.311-.674m11.37-4.259c3.603 0 5.66 2.803 5.66 6.734s-2.057 6.734-5.66 6.734c-3.586 0-5.57-2.802-5.57-6.734 0-3.93 1.984-6.734 5.57-6.734m3.057 6.734c0-2.784-1.128-4.495-3.057-4.495-1.911 0-2.985 1.71-2.985 4.495 0 2.803 1.074 4.496 2.985 4.496 1.929 0 3.057-1.693 3.057-4.496m9.633-6.734c3.603 0 5.66 2.803 5.66 6.734s-2.057 6.734-5.66 6.734c-3.586 0-5.57-2.802-5.57-6.734 0-3.93 1.984-6.734 5.57-6.734m3.057 6.734c0-2.784-1.128-4.495-3.057-4.495-1.911 0-2.985 1.71-2.985 4.495 0 2.803 1.074 4.496 2.985 4.496 1.929 0 3.057-1.693 3.057-4.496m8.997 6.552h-2.53v-10.52l-2.857 1.402v-2.511l2.857-1.475h2.53zM29.25 13.716l-.93.421a1.3 1.3 0 0 0-.331-.34 1.2 1.2 0 0 0-.852-.205 1.6 1.6 0 0 0-.465.133 1.45 1.45 0 0 0-.643.542 1.5 1.5 0 0 0-.228.835q-.002.48.259 1.056.264.585.627.904.365.315.776.375.412.056.826-.13a1.6 1.6 0 0 0 .401-.254q.174-.154.279-.345a1.215 1.215 0 0 0 .113-.885l.933-.416q.112.387.082.785a2.2 2.2 0 0 1-.677 1.44 2.7 2.7 0 0 1-.769.51q-.672.304-1.34.23a2.4 2.4 0 0 1-1.239-.522q-.57-.45-.941-1.272-.374-.824-.331-1.548.041-.726.427-1.276.387-.55 1.055-.852.426-.192.846-.239t.81.056q.39.1.726.35.337.247.586.647M32.549 16.42l-1.608-5.362 3.487-1.046.244.814-2.516.755.437 1.455 2.335-.7.244.814-2.335.7.439 1.464 2.536-.761.245.814zM38.004 14.85l-.925-5.52 2.07-.346q.636-.107 1.104.042.47.149.76.51.29.36.378.887.09.531-.072.96-.16.426-.56.712-.4.284-1.037.39l-1.475.247-.139-.83 1.34-.225q.372-.062.592-.204a.74.74 0 0 0 .3-.364 1 1 0 0 0 .032-.515 1.03 1.03 0 0 0-.2-.482.75.75 0 0 0-.406-.259q-.255-.07-.63-.008l-.917.154.785 4.684zm2.432-2.978 1.786 2.272-1.116.187-1.761-2.276zM43.514 9.2l-.033-.85 4.463-.17.032.849-1.728.066.18 4.744-1.004.038-.181-4.744zM51.297 8.302l-.323 5.587-1.012-.058.323-5.588zM53.053 14.006l.836-5.534 3.545.535-.127.84-2.542-.384-.227 1.503 2.3.347-.128.84-2.3-.347-.354 2.351zM60.874 9.76l-1.346 5.433-.984-.244 1.346-5.433zM61.552 15.689l1.852-5.282 3.435 1.204-.28.802-2.48-.869-.502 1.434 2.3.807-.28.802-2.301-.806-.506 1.441 2.5.876-.282.802zM68.594 18.475l-1.692-.858 2.534-4.991 1.725.876q.743.377 1.125.947.385.57.39 1.274.003.705-.391 1.481-.396.78-.97 1.194a2.25 2.25 0 0 1-1.268.438q-.694.025-1.453-.36m-.39-1.181.743.377q.521.264.966.251.447-.015.815-.306.369-.294.66-.867.29-.573.307-1.04a1.34 1.34 0 0 0-.23-.83q-.246-.364-.752-.621l-.77-.391z"/><g clip-path="url(#d)"><path fill="#35777C" d="m20.725 23.645-1.123 1.095.265 1.547a.18.18 0 0 1-.262.19l-1.389-.73-1.389.73a.18.18 0 0 1-.262-.19l.266-1.547-1.124-1.095a.18.18 0 0 1 .1-.308l1.553-.225.694-1.407c.061-.123.263-.123.324 0l.694 1.407 1.553.226a.18.18 0 0 1 .1.307"/></g><g clip-path="url(#e)"><path fill="#35777C" d="m20.725 71.745-1.123 1.095.265 1.547a.18.18 0 0 1-.262.19l-1.389-.73-1.389.73a.18.18 0 0 1-.262-.19l.266-1.547-1.124-1.095a.18.18 0 0 1 .1-.308l1.553-.225.694-1.408c.061-.123.263-.123.324 0l.694 1.408 1.553.225a.18.18 0 0 1 .1.308"/></g><g clip-path="url(#f)"><path fill="#35777C" d="M82.294 23.645 81.17 24.74l.265 1.547a.18.18 0 0 1-.261.19l-1.39-.73-1.389.73a.18.18 0 0 1-.262-.19l.266-1.547-1.124-1.095a.18.18 0 0 1 .1-.308l1.553-.225.695-1.407c.06-.123.262-.123.323 0l.695 1.407 1.552.226a.18.18 0 0 1 .1.307"/></g><g clip-path="url(#g)"><path fill="#35777C" d="M82.294 71.745 81.17 72.84l.265 1.547a.18.18 0 0 1-.261.19l-1.39-.73-1.389.73a.18.18 0 0 1-.262-.19l.266-1.547-1.124-1.095a.18.18 0 0 1 .1-.308l1.553-.225.695-1.408c.06-.123.262-.123.323 0l.695 1.408 1.552.225a.18.18 0 0 1 .1.308"/></g><path fill="#00797D" d="M29.415 80.918a1.5 1.5 0 0 0 .018-.439 1.2 1.2 0 0 0-.11-.4 1.2 1.2 0 0 0-.245-.344 1.6 1.6 0 0 0-.38-.275 1.45 1.45 0 0 0-.816-.174 1.52 1.52 0 0 0-.802.33q-.381.294-.674.85-.297.56-.325 1.043-.03.482.177.85a1.5 1.5 0 0 0 .624.587q.378.2.73.2.354 0 .644-.186.292-.189.482-.549l.186.139-1.343-.71.37-.7 2.008 1.06-.314.594q-.336.636-.851.957a2.1 2.1 0 0 1-1.122.322q-.605 0-1.22-.325-.683-.361-1.039-.941a2.4 2.4 0 0 1-.341-1.302q.014-.723.427-1.506.316-.6.735-.98.42-.382.9-.548.482-.17.986-.123.505.045.991.301.411.217.702.526.294.306.452.671.163.367.181.763a2.1 2.1 0 0 1-.117.791zM35.397 81.455l.956.34-1.223 3.445a1.96 1.96 0 0 1-.622.902 1.9 1.9 0 0 1-.985.407q-.567.07-1.21-.16-.648-.229-1.044-.64a1.9 1.9 0 0 1-.508-.937 1.97 1.97 0 0 1 .088-1.09l1.223-3.447.956.34-1.195 3.366q-.117.33-.064.638.056.31.269.55t.577.368q.363.129.68.079a1.1 1.1 0 0 0 .555-.258q.236-.207.353-.537zM37.014 87.776l-1.06-.216L39 82.468l1.226.25.818 5.878-1.06-.216-.579-4.658-.042-.008zm.473-2.144 2.892.589-.162.798-2.893-.588zM42.38 88.787l.384-5.584 2.094.145q.644.045 1.065.298.423.254.619.672.198.417.161.951a1.83 1.83 0 0 1-.293.917 1.5 1.5 0 0 1-.71.562q-.456.181-1.1.138l-1.49-.103.057-.84 1.355.094q.376.025.623-.062a.74.74 0 0 0 .376-.283 1 1 0 0 0 .152-.494 1 1 0 0 0-.082-.515.75.75 0 0 0-.335-.346 1.5 1.5 0 0 0-.611-.155l-.928-.064-.326 4.739zm3.058-2.331 1.208 2.625-1.129-.078-1.183-2.623zM48.942 89.088l-1.08.067 1.62-5.708 1.25-.077 2.315 5.464-1.08.067-1.767-4.349-.044.003zm-.1-2.193 2.946-.181.05.812-2.946.182zM57.762 82.292l1.127 5.482-.884.181-3.35-3.203-.046.01.768 3.734-.994.204-1.126-5.483.889-.182 3.348 3.207.048-.01-.767-3.738zM59.08 82.869l-.285-.801 4.208-1.496.285.801-1.63.58 1.59 4.472-.948.337-1.59-4.473zM66.384 85.231l-2.523-4.996 3.25-1.641.382.759-2.344 1.184.685 1.356 2.176-1.099.383.759-2.176 1.099.689 1.363 2.364-1.193.383.758zM71.27 82.692l-3.112-4.651 3.025-2.025.473.707-2.183 1.46.845 1.263 2.026-1.356.473.707-2.026 1.355.85 1.27 2.2-1.473.473.707z"/></g><defs><clipPath id="a"><rect width="96.2" height="96.2" x=".9" fill="#fff" rx="48.1"/></clipPath><clipPath id="b"><path fill="#fff" d="M18.216 17.316h61.087v61.087H18.216z"/></clipPath><clipPath id="d"><path fill="#fff" d="M15.33 21.164h5.772v5.772H15.33z"/></clipPath><clipPath id="e"><path fill="#fff" d="M15.33 69.264h5.772v5.772H15.33z"/></clipPath><clipPath id="f"><path fill="#fff" d="M76.898 21.164h5.772v5.772h-5.772z"/></clipPath><clipPath id="g"><path fill="#fff" d="M76.898 69.264h5.772v5.772h-5.772z"/></clipPath></defs></svg>