<svg xmlns="http://www.w3.org/2000/svg" width="97" height="97" fill="none"><g clip-path="url(#a)"><circle cx="48.1" cy="48.1" r="46.8" fill="#F1F7F9" stroke="#34777C" stroke-width="2.6"/><g clip-path="url(#b)"><mask id="c" fill="#fff"><path d="M47.824 17.318q-1.644 0-3.278.177a29 29 0 0 0-3.52.596 30.55 30.55 0 0 0-16.19 9.645c-11.092 12.735-9.76 32.05 2.974 43.143 12.192 10.62 30.544 9.913 41.883-1.613q.573-.587 1.121-1.209a30.53 30.53 0 0 0 7.589-20.16c0-16.888-13.69-30.579-30.58-30.579M27.317 28.056c.16-.167.328-.327.492-.489.19-.186.378-.374.572-.554.17-.16.346-.312.52-.467.197-.174.392-.349.594-.517q.267-.223.541-.438.305-.246.618-.483.279-.21.564-.408c.21-.15.423-.306.638-.447a27 27 0 0 1 1.241-.79 34 34 0 0 1 1.282-.726q.305-.163.611-.32a30 30 0 0 1 1.328-.626l.725-.306q.314-.13.634-.253.37-.138.746-.269.319-.113.642-.219.381-.12.767-.231c.215-.062.428-.127.644-.185.082-.021.165-.038.248-.06a25.3 25.3 0 0 0-6.515 10.578 34.2 34.2 0 0 1-6.984-2.688q.049-.054.092-.102m-1.466 1.642a35.4 35.4 0 0 0 7.736 3.078 53 53 0 0 0-2.059 14.102h-12.22a28.48 28.48 0 0 1 6.543-17.18m0 36.398a28.48 28.48 0 0 1-6.544-17.18H31.53a52.9 52.9 0 0 0 2.058 14.102 35.4 35.4 0 0 0-7.736 3.078M40.47 75.47c-.206-.052-.42-.12-.631-.182q-.388-.11-.772-.233-.322-.106-.639-.218a24 24 0 0 1-1.38-.521l-.729-.306a27 27 0 0 1-.62-.283 46 46 0 0 1-.714-.345 28.09 28.09 0 0 1-2.557-1.458 27 27 0 0 1-.578-.376q-.327-.222-.646-.453-.28-.198-.556-.408a26 26 0 0 1-.624-.488q-.271-.214-.536-.434c-.204-.17-.4-.346-.598-.521q-.262-.23-.517-.463c-.195-.181-.384-.37-.573-.556-.164-.162-.331-.322-.492-.489q-.044-.048-.088-.094a34.2 34.2 0 0 1 6.984-2.69 25.3 25.3 0 0 0 6.514 10.579q-.124-.03-.248-.061m6.335.887c-4.362-.62-8.185-5.172-10.59-11.894a51.8 51.8 0 0 1 10.59-1.247zm0-15.18c-3.78.05-7.545.499-11.23 1.34a51 51 0 0 1-2.008-13.6h13.238zm0-14.3H33.567a51 51 0 0 1 2.007-13.6c3.686.84 7.45 1.29 11.23 1.34zm0-14.299a51.7 51.7 0 0 1-10.59-1.247c2.405-6.722 6.228-11.274 10.59-11.894zm22.992-2.88a28.48 28.48 0 0 1 6.544 17.18H64.119a52.9 52.9 0 0 0-2.058-14.102 35.5 35.5 0 0 0 7.736-3.079M55.17 20.323c.214.053.427.12.64.183q.387.11.77.233.323.106.64.218a24 24 0 0 1 1.38.521l.729.306q.311.137.62.283.355.167.714.345c.204.102.408.204.612.315a28 28 0 0 1 1.945 1.142q.292.185.578.377.325.221.644.452a24 24 0 0 1 1.182.895q.271.212.536.434c.204.17.4.346.598.52.174.155.348.307.517.464.195.181.383.37.573.556.164.162.331.322.492.488q.044.049.088.095a34.2 34.2 0 0 1-6.984 2.69 25.3 25.3 0 0 0-6.523-10.578q.124.03.249.061m-6.327-.886c4.362.62 8.185 5.172 10.59 11.894a51.8 51.8 0 0 1-10.59 1.247zm0 15.18c3.78-.05 7.545-.5 11.23-1.34a51 51 0 0 1 2.008 13.6H48.843zm0 14.3h13.238a51 51 0 0 1-2.007 13.6 53.7 53.7 0 0 0-11.23-1.34zm0 27.44V63.216c3.564.05 7.113.467 10.59 1.247-2.405 6.722-6.228 11.274-10.59 11.894m19.488-8.62c-.161.167-.327.327-.491.489-.19.186-.38.375-.574.556-.17.158-.344.306-.517.464q-.295.264-.596.52c-.179.149-.36.292-.541.437q-.305.246-.618.483-.279.21-.564.408c-.21.15-.423.306-.638.446q-.29.195-.583.382a20 20 0 0 1-.66.407c-.203.12-.398.236-.599.351a31 31 0 0 1-1.292.695 30 30 0 0 1-1.328.627l-.725.306q-.316.129-.633.252-.373.14-.75.27-.316.112-.638.218a23 23 0 0 1-.77.232q-.32.096-.642.185c-.083.021-.165.038-.248.06a25.3 25.3 0 0 0 6.515-10.578c2.419.638 4.761 1.539 6.984 2.688-.034.036-.062.072-.092.102m1.466-1.64a35.4 35.4 0 0 0-7.736-3.079 52.9 52.9 0 0 0 2.058-14.102h12.222a28.48 28.48 0 0 1-6.544 17.18"/></mask><path fill="#34777C" stroke="#fff" stroke-width=".962" d="M47.824 17.318q-1.644 0-3.278.177a29 29 0 0 0-3.52.596 30.55 30.55 0 0 0-16.19 9.645c-11.092 12.735-9.76 32.05 2.974 43.143 12.192 10.62 30.544 9.913 41.883-1.613q.573-.587 1.121-1.209a30.53 30.53 0 0 0 7.589-20.16c0-16.888-13.69-30.579-30.58-30.579ZM27.317 28.056c.16-.167.328-.327.492-.489.19-.186.378-.374.572-.554.17-.16.346-.312.52-.467.197-.174.392-.349.594-.517q.267-.223.541-.438.305-.246.618-.483.279-.21.564-.408c.21-.15.423-.306.638-.447a27 27 0 0 1 1.241-.79 34 34 0 0 1 1.282-.726q.305-.163.611-.32a30 30 0 0 1 1.328-.626l.725-.306q.314-.13.634-.253.37-.138.746-.269.319-.113.642-.219.381-.12.767-.231c.215-.062.428-.127.644-.185.082-.021.165-.038.248-.06a25.3 25.3 0 0 0-6.515 10.578 34.2 34.2 0 0 1-6.984-2.688q.049-.054.092-.102Zm-1.466 1.642a35.4 35.4 0 0 0 7.736 3.078 53 53 0 0 0-2.059 14.102h-12.22a28.48 28.48 0 0 1 6.543-17.18Zm0 36.398a28.48 28.48 0 0 1-6.544-17.18H31.53a52.9 52.9 0 0 0 2.058 14.102 35.4 35.4 0 0 0-7.736 3.078ZM40.47 75.47c-.206-.052-.42-.12-.631-.182q-.388-.11-.772-.233-.322-.106-.639-.218a24 24 0 0 1-1.38-.521l-.729-.306a27 27 0 0 1-.62-.283 46 46 0 0 1-.714-.345 28.09 28.09 0 0 1-2.557-1.458 27 27 0 0 1-.578-.376q-.327-.222-.646-.453-.28-.198-.556-.408a26 26 0 0 1-.624-.488q-.271-.214-.536-.434c-.204-.17-.4-.346-.598-.521q-.262-.23-.517-.463c-.195-.181-.384-.37-.573-.556-.164-.162-.331-.322-.492-.489q-.044-.048-.088-.094a34.2 34.2 0 0 1 6.984-2.69 25.3 25.3 0 0 0 6.514 10.579q-.124-.03-.248-.061Zm6.335.887c-4.362-.62-8.185-5.172-10.59-11.894a51.8 51.8 0 0 1 10.59-1.247zm0-15.18c-3.78.05-7.545.499-11.23 1.34a51 51 0 0 1-2.008-13.6h13.238zm0-14.3H33.567a51 51 0 0 1 2.007-13.6c3.686.84 7.45 1.29 11.23 1.34zm0-14.299a51.7 51.7 0 0 1-10.59-1.247c2.405-6.722 6.228-11.274 10.59-11.894zm22.992-2.88a28.48 28.48 0 0 1 6.544 17.18H64.119a52.9 52.9 0 0 0-2.058-14.102 35.5 35.5 0 0 0 7.736-3.079ZM55.17 20.323c.214.053.427.12.64.183q.387.11.77.233.323.106.64.218a24 24 0 0 1 1.38.521l.729.306q.311.137.62.283.355.167.714.345c.204.102.408.204.612.315a28 28 0 0 1 1.945 1.142q.292.185.578.377.325.221.644.452a24 24 0 0 1 1.182.895q.271.212.536.434c.204.17.4.346.598.52.174.155.348.307.517.464.195.181.383.37.573.556.164.162.331.322.492.488q.044.049.088.095a34.2 34.2 0 0 1-6.984 2.69 25.3 25.3 0 0 0-6.523-10.578q.124.03.249.061Zm-6.327-.886c4.362.62 8.185 5.172 10.59 11.894a51.8 51.8 0 0 1-10.59 1.247zm0 15.18c3.78-.05 7.545-.5 11.23-1.34a51 51 0 0 1 2.008 13.6H48.843zm0 14.3h13.238a51 51 0 0 1-2.007 13.6 53.7 53.7 0 0 0-11.23-1.34zm0 27.44V63.216c3.564.05 7.113.467 10.59 1.247-2.405 6.722-6.228 11.274-10.59 11.894Zm19.488-8.62c-.161.167-.327.327-.491.489-.19.186-.38.375-.574.556-.17.158-.344.306-.517.464q-.295.264-.596.52c-.179.149-.36.292-.541.437q-.305.246-.618.483-.279.21-.564.408c-.21.15-.423.306-.638.446q-.29.195-.583.382a20 20 0 0 1-.66.407c-.203.12-.398.236-.599.351a31 31 0 0 1-1.292.695 30 30 0 0 1-1.328.627l-.725.306q-.316.129-.633.252-.373.14-.75.27-.316.112-.638.218a23 23 0 0 1-.77.232q-.32.096-.642.185c-.083.021-.165.038-.248.06a25.3 25.3 0 0 0 6.515-10.578c2.419.638 4.761 1.539 6.984 2.688-.034.036-.062.072-.092.102Zm1.466-1.64a35.4 35.4 0 0 0-7.736-3.079 52.9 52.9 0 0 0 2.058-14.102h12.222a28.48 28.48 0 0 1-6.544 17.18Z" mask="url(#c)"/></g><path fill="#F1F7F9" d="M3.9 37.7h88.4v20.8H3.9z"/><path stroke="#34777C" stroke-width="2.6" d="M0 36.4h96.2v23.4H0z"/><path fill="#35777C" d="M12.334 42.337v13.104H9.732V42.337zm12.256 9.319c0 2.53-2.257 3.95-5.151 3.95-3.33 0-5.369-1.602-5.369-4.023h2.639c0 1.074.892 1.838 2.73 1.838 1.456 0 2.439-.655 2.439-1.692 0-.91-.546-1.347-1.82-1.584l-2.057-.4c-2.348-.437-3.64-1.693-3.64-3.658 0-2.22 1.838-3.932 4.969-3.932 2.566 0 5.041 1.092 5.041 3.986h-2.566c0-1.31-1.074-1.856-2.512-1.856-1.383 0-2.256.619-2.256 1.565 0 .855.527 1.329 1.929 1.602l2.075.382c2.42.473 3.549 1.765 3.549 3.822m7.673 3.967c-3.804 0-6.388-2.766-6.388-6.715 0-3.968 2.584-6.753 6.388-6.753s6.37 2.785 6.37 6.753c0 3.949-2.566 6.715-6.37 6.715m0-2.457c2.275 0 3.585-1.656 3.585-4.258 0-2.621-1.31-4.296-3.585-4.296-2.293 0-3.622 1.675-3.622 4.296 0 2.62 1.329 4.258 3.622 4.258m15.888-11.01c2.548 0 5.023 1.692 5.023 6.66 0 4.15-1.565 6.79-5.15 6.79-2.64 0-4.26-1.439-4.587-3.55h2.44c.272.965 1.2 1.402 2.183 1.402 1.656 0 2.475-1.238 2.475-2.894v-.237c-.6.674-1.565 1.074-2.73 1.074-2.347 0-4.513-1.602-4.513-4.55 0-2.93 2.093-4.696 4.86-4.696m-.036 7.17c1.401 0 2.384-.983 2.384-2.457.018-1.474-.965-2.53-2.403-2.53-1.42 0-2.365 1.056-2.365 2.512s.946 2.475 2.384 2.475m12.106-7.17c3.603 0 5.66 2.802 5.66 6.733 0 3.932-2.057 6.734-5.66 6.734-3.586 0-5.57-2.802-5.57-6.734 0-3.93 1.984-6.734 5.57-6.734m3.057 6.733c0-2.784-1.128-4.495-3.057-4.495-1.911 0-2.985 1.71-2.985 4.495 0 2.803 1.074 4.496 2.985 4.496 1.929 0 3.057-1.693 3.057-4.496m9.633-6.734c3.603 0 5.66 2.803 5.66 6.734s-2.056 6.734-5.66 6.734c-3.585 0-5.57-2.802-5.57-6.734 0-3.93 1.985-6.734 5.57-6.734m3.058 6.734c0-2.784-1.129-4.495-3.058-4.495-1.911 0-2.985 1.71-2.985 4.495 0 2.803 1.074 4.496 2.985 4.496 1.93 0 3.058-1.693 3.058-4.496m8.996 6.552h-2.53v-10.52l-2.857 1.402v-2.511l2.858-1.475h2.53zM28.35 13.716l-.93.421a1.3 1.3 0 0 0-.331-.34 1.2 1.2 0 0 0-.852-.205q-.232.027-.465.133a1.45 1.45 0 0 0-.643.542 1.5 1.5 0 0 0-.228.835q-.001.48.259 1.056.264.585.628.904.364.315.775.375.412.056.826-.13a1.6 1.6 0 0 0 .401-.254q.174-.154.279-.345a1.215 1.215 0 0 0 .113-.885l.933-.416q.112.387.082.785a2.2 2.2 0 0 1-.677 1.44 2.7 2.7 0 0 1-.768.51q-.674.304-1.341.23a2.4 2.4 0 0 1-1.239-.522q-.57-.45-.941-1.272-.373-.824-.331-1.548.041-.726.427-1.276.387-.55 1.055-.852.426-.192.846-.239t.81.056q.39.1.726.35.336.247.587.647M31.65 16.42l-1.609-5.362 3.487-1.046.244.814-2.515.755.436 1.455 2.335-.7.244.814-2.335.7.44 1.464 2.536-.761.244.814zM37.104 14.85l-.924-5.52 2.07-.346q.636-.107 1.104.042.471.149.759.51.29.36.378.887.09.531-.072.96-.158.426-.56.712-.4.284-1.037.39l-1.474.247-.14-.83 1.34-.225a1.6 1.6 0 0 0 .592-.204.74.74 0 0 0 .3-.364 1 1 0 0 0 .033-.515 1.03 1.03 0 0 0-.2-.482.75.75 0 0 0-.407-.259q-.255-.07-.63-.008L37.32 10l.784 4.684zm2.433-2.978 1.785 2.272-1.115.187-1.762-2.276zM42.614 9.2l-.032-.85 4.462-.17.033.849-1.73.066.182 4.744-1.005.038-.181-4.744zM50.397 8.302l-.323 5.587-1.012-.058.323-5.588zM52.153 14.006l.836-5.534 3.546.535-.127.84-2.543-.384-.227 1.503 2.3.347-.128.84-2.3-.347-.354 2.351zM59.974 9.76l-1.347 5.433-.984-.244 1.346-5.433zM60.652 15.689l1.852-5.282 3.435 1.204-.28.802-2.48-.869-.502 1.434 2.3.807-.28.802-2.301-.806-.506 1.441 2.5.876-.282.802zM67.694 18.475l-1.691-.858 2.533-4.991 1.725.876q.743.377 1.125.947.386.57.39 1.274t-.39 1.481q-.396.78-.97 1.194a2.25 2.25 0 0 1-1.268.438q-.693.025-1.454-.36m-.39-1.181.743.377q.522.264.967.251.446-.015.814-.306.37-.294.66-.867.292-.573.308-1.04a1.34 1.34 0 0 0-.231-.83q-.245-.364-.752-.621l-.77-.391z"/><g clip-path="url(#d)"><path fill="#35777C" d="m19.825 23.645-1.123 1.095.265 1.547a.18.18 0 0 1-.261.19l-1.39-.73-1.389.73a.18.18 0 0 1-.262-.19l.266-1.547-1.124-1.095a.18.18 0 0 1 .1-.308l1.553-.225.694-1.407c.061-.123.263-.123.324 0l.694 1.407 1.553.226a.18.18 0 0 1 .1.307"/></g><g clip-path="url(#e)"><path fill="#35777C" d="m19.825 71.745-1.123 1.095.265 1.547a.18.18 0 0 1-.262.19l-1.389-.73-1.389.73a.18.18 0 0 1-.262-.19l.266-1.547-1.124-1.095a.18.18 0 0 1 .1-.308l1.553-.225.694-1.408c.061-.123.263-.123.324 0l.694 1.408 1.553.225a.18.18 0 0 1 .1.308"/></g><g clip-path="url(#f)"><path fill="#35777C" d="M81.393 23.645 80.27 24.74l.266 1.547a.18.18 0 0 1-.262.19l-1.39-.73-1.388.73a.18.18 0 0 1-.262-.19l.265-1.547-1.123-1.095a.18.18 0 0 1 .1-.308l1.553-.225.694-1.407c.06-.123.263-.123.324 0l.694 1.407 1.553.226a.18.18 0 0 1 .1.307"/></g><g clip-path="url(#g)"><path fill="#35777C" d="M81.393 71.745 80.27 72.84l.265 1.547a.18.18 0 0 1-.262.19l-1.389-.73-1.39.73a.18.18 0 0 1-.262-.19l.266-1.547-1.123-1.095a.18.18 0 0 1 .1-.308l1.553-.225.694-1.408c.061-.123.263-.123.324 0l.694 1.408 1.553.225a.18.18 0 0 1 .1.308"/></g><path fill="#00797D" d="M28.515 80.918q.044-.228.019-.439a1.2 1.2 0 0 0-.11-.4 1.2 1.2 0 0 0-.245-.343 1.6 1.6 0 0 0-.38-.275 1.45 1.45 0 0 0-.817-.175 1.52 1.52 0 0 0-.802.33q-.381.294-.674.85-.297.56-.325 1.043-.03.482.178.851a1.5 1.5 0 0 0 .624.586q.376.2.729.2.354.001.644-.185.292-.19.482-.55l.186.14-1.343-.71.37-.701 2.008 1.06-.314.595q-.336.635-.851.956a2.1 2.1 0 0 1-1.122.323q-.605-.002-1.22-.326-.683-.36-1.038-.94a2.4 2.4 0 0 1-.342-1.303q.015-.723.427-1.505.316-.6.735-.982.42-.38.9-.547.483-.168.986-.122.505.045.991.3.41.217.703.526.292.306.452.671.162.368.18.763.02.398-.117.791zM34.497 81.455l.956.34-1.223 3.446a1.96 1.96 0 0 1-.622.901 1.9 1.9 0 0 1-.985.408q-.567.068-1.21-.16-.648-.23-1.044-.64a1.9 1.9 0 0 1-.508-.937 1.97 1.97 0 0 1 .088-1.091l1.223-3.446.956.339-1.195 3.366q-.117.33-.064.638.056.31.269.551.213.238.577.367.363.129.68.079a1.1 1.1 0 0 0 .555-.258q.236-.207.353-.536zM36.114 87.776l-1.06-.216L38.1 82.47l1.226.25.818 5.877-1.06-.216-.578-4.657-.043-.01zm.473-2.143 2.892.588-.162.798-2.893-.588zM41.48 88.787l.385-5.584 2.093.145q.644.045 1.065.298.423.254.619.673.198.416.162.95a1.83 1.83 0 0 1-.294.917 1.5 1.5 0 0 1-.71.562q-.456.182-1.1.138l-1.49-.103.057-.84 1.355.094q.377.026.624-.061a.73.73 0 0 0 .375-.284 1 1 0 0 0 .152-.494 1 1 0 0 0-.082-.515.75.75 0 0 0-.335-.346 1.5 1.5 0 0 0-.611-.155l-.927-.064-.327 4.739zm3.059-2.33 1.207 2.625-1.129-.078-1.183-2.624zM48.041 89.088l-1.08.067 1.622-5.708 1.25-.077 2.314 5.465-1.08.066-1.767-4.348-.044.002zm-.1-2.192 2.947-.182.05.813-2.946.182zM56.862 82.292l1.127 5.482-.883.182-3.351-3.204-.046.01.768 3.734-.994.204-1.126-5.483.889-.182 3.348 3.207.048-.01-.768-3.737zM58.18 82.87l-.285-.802 4.208-1.496.285.801-1.63.58 1.59 4.473-.948.337-1.59-4.473zM65.484 85.231l-2.523-4.996 3.25-1.64.382.758-2.344 1.184.685 1.356 2.176-1.099.383.759-2.176 1.099.689 1.364 2.364-1.194.383.758zM70.37 82.693l-3.112-4.652 3.025-2.025.473.707-2.183 1.46.845 1.263 2.026-1.355.473.706-2.026 1.356.85 1.27 2.2-1.473.473.706z"/></g><defs><clipPath id="a"><rect width="96.2" height="96.2" fill="#fff" rx="48.1"/></clipPath><clipPath id="b"><path fill="#fff" d="M17.316 17.316h61.087v61.087H17.316z"/></clipPath><clipPath id="d"><path fill="#fff" d="M14.43 21.164h5.772v5.772H14.43z"/></clipPath><clipPath id="e"><path fill="#fff" d="M14.43 69.264h5.772v5.772H14.43z"/></clipPath><clipPath id="f"><path fill="#fff" d="M75.998 21.164h5.772v5.772h-5.772z"/></clipPath><clipPath id="g"><path fill="#fff" d="M75.998 69.264h5.772v5.772h-5.772z"/></clipPath></defs></svg>