<svg xmlns="http://www.w3.org/2000/svg" width="97" height="97" fill="none"><g clip-path="url(#a)"><circle cx="48.7" cy="48.1" r="46.8" fill="#F1F7F9" stroke="#34777C" stroke-width="2.6"/><g clip-path="url(#b)"><mask id="c" fill="#fff"><path d="M48.424 17.318q-1.644 0-3.277.177a29 29 0 0 0-3.521.596 30.54 30.54 0 0 0-16.188 9.645c-11.093 12.735-9.762 32.05 2.973 43.143 12.192 10.62 30.543 9.913 41.882-1.613q.574-.587 1.122-1.209a30.53 30.53 0 0 0 7.588-20.16c0-16.888-13.69-30.579-30.579-30.579M27.917 28.056c.161-.167.329-.327.493-.489.19-.186.378-.374.572-.554.17-.16.345-.312.52-.467.196-.174.392-.349.594-.517.177-.15.36-.294.54-.438q.306-.246.619-.483.278-.21.563-.408c.211-.15.423-.306.638-.447a27 27 0 0 1 1.242-.79 34 34 0 0 1 1.281-.726q.306-.163.612-.32a30 30 0 0 1 1.328-.626l.725-.306q.314-.13.634-.253.37-.138.746-.269.319-.113.642-.219.381-.12.766-.231c.215-.062.428-.127.644-.185.083-.021.166-.038.248-.06a25.3 25.3 0 0 0-6.514 10.578 34.2 34.2 0 0 1-6.984-2.688q.049-.054.091-.102m-1.465 1.642a35.4 35.4 0 0 0 7.735 3.078 52.9 52.9 0 0 0-2.058 14.102H19.908a28.48 28.48 0 0 1 6.544-17.18m0 36.398a28.48 28.48 0 0 1-6.544-17.18h12.221a52.9 52.9 0 0 0 2.058 14.102 35.4 35.4 0 0 0-7.735 3.078M41.07 75.47c-.206-.052-.419-.12-.63-.182q-.388-.11-.772-.233-.322-.106-.64-.218a24 24 0 0 1-1.38-.521l-.728-.306a27 27 0 0 1-.621-.283 46 46 0 0 1-.713-.345 19 19 0 0 1-.612-.315 28 28 0 0 1-1.946-1.142 27 27 0 0 1-.578-.377q-.325-.222-.645-.453a21 21 0 0 1-.557-.408 26 26 0 0 1-.623-.488q-.27-.214-.537-.434-.303-.257-.598-.521-.26-.23-.517-.463c-.194-.181-.383-.37-.572-.556-.165-.162-.332-.322-.493-.489l-.087-.094a34.2 34.2 0 0 1 6.984-2.69 25.3 25.3 0 0 0 6.514 10.579q-.124-.03-.249-.061m6.335.887c-4.361-.62-8.185-5.172-10.59-11.894a51.8 51.8 0 0 1 10.59-1.247zm0-15.18c-3.78.05-7.544.499-11.23 1.34a51 51 0 0 1-2.007-13.6h13.237zm0-14.3H34.168a51 51 0 0 1 2.007-13.6c3.686.84 7.45 1.29 11.23 1.34zm0-14.299a51.7 51.7 0 0 1-10.59-1.247c2.405-6.722 6.229-11.274 10.59-11.894zm22.992-2.88a28.48 28.48 0 0 1 6.544 17.18H64.72a52.9 52.9 0 0 0-2.058-14.102 35.5 35.5 0 0 0 7.735-3.079M55.77 20.323c.215.053.428.12.64.183q.388.11.771.233.322.106.64.218a24 24 0 0 1 1.38.521l.728.306q.312.137.621.283.355.167.714.345c.203.102.407.204.611.315a28 28 0 0 1 1.946 1.142q.291.185.578.377.325.221.644.452a24 24 0 0 1 1.181.895q.271.212.536.434c.204.17.401.346.599.52.173.155.347.307.517.464.194.181.383.37.572.556.165.162.332.322.493.488q.044.049.087.095a34.2 34.2 0 0 1-6.984 2.69 25.3 25.3 0 0 0-6.522-10.578q.124.03.248.061m-6.326-.886c4.361.62 8.185 5.172 10.59 11.894a51.8 51.8 0 0 1-10.59 1.247zm0 15.18c3.78-.05 7.544-.5 11.23-1.34a51 51 0 0 1 2.007 13.6H49.444zm0 14.3H62.68a51 51 0 0 1-2.007 13.6 53.7 53.7 0 0 0-11.23-1.34zm0 27.44V63.216c3.563.05 7.112.467 10.59 1.247-2.405 6.722-6.229 11.274-10.59 11.894m19.488-8.62c-.161.167-.328.327-.492.489-.19.186-.379.375-.573.556-.17.158-.344.306-.517.464q-.295.264-.597.52c-.178.149-.36.292-.54.437-.205.163-.408.326-.618.483q-.28.21-.564.408c-.211.15-.423.306-.638.446q-.29.195-.583.382a20 20 0 0 1-.66.407c-.204.12-.398.236-.6.351a31 31 0 0 1-1.292.695 30 30 0 0 1-1.328.627l-.724.306q-.316.129-.633.252-.374.14-.75.27-.317.112-.639.218-.381.122-.77.232-.318.096-.641.185c-.083.021-.166.038-.248.06a25.3 25.3 0 0 0 6.514-10.578c2.42.638 4.762 1.539 6.984 2.688q-.049.055-.091.102m1.465-1.64a35.4 35.4 0 0 0-7.735-3.079 53 53 0 0 0 2.058-14.102H76.94a28.48 28.48 0 0 1-6.544 17.18"/></mask><path fill="#34777C" stroke="#fff" stroke-width=".962" d="M48.424 17.318q-1.644 0-3.277.177a29 29 0 0 0-3.521.596 30.54 30.54 0 0 0-16.188 9.645c-11.093 12.735-9.762 32.05 2.973 43.143 12.192 10.62 30.543 9.913 41.882-1.613q.574-.587 1.122-1.209a30.53 30.53 0 0 0 7.588-20.16c0-16.888-13.69-30.579-30.579-30.579ZM27.917 28.056c.161-.167.329-.327.493-.489.19-.186.378-.374.572-.554.17-.16.345-.312.52-.467.196-.174.392-.349.594-.517.177-.15.36-.294.54-.438q.306-.246.619-.483.278-.21.563-.408c.211-.15.423-.306.638-.447a27 27 0 0 1 1.242-.79 34 34 0 0 1 1.281-.726q.306-.163.612-.32a30 30 0 0 1 1.328-.626l.725-.306q.314-.13.634-.253.37-.138.746-.269.319-.113.642-.219.381-.12.766-.231c.215-.062.428-.127.644-.185.083-.021.166-.038.248-.06a25.3 25.3 0 0 0-6.514 10.578 34.2 34.2 0 0 1-6.984-2.688q.049-.054.091-.102Zm-1.465 1.642a35.4 35.4 0 0 0 7.735 3.078 52.9 52.9 0 0 0-2.058 14.102H19.908a28.48 28.48 0 0 1 6.544-17.18Zm0 36.398a28.48 28.48 0 0 1-6.544-17.18h12.221a52.9 52.9 0 0 0 2.058 14.102 35.4 35.4 0 0 0-7.735 3.078ZM41.07 75.47c-.206-.052-.419-.12-.63-.182q-.388-.11-.772-.233-.322-.106-.64-.218a24 24 0 0 1-1.38-.521l-.728-.306a27 27 0 0 1-.621-.283 46 46 0 0 1-.713-.345 19 19 0 0 1-.612-.315 28 28 0 0 1-1.946-1.142 27 27 0 0 1-.578-.377q-.325-.222-.645-.453a21 21 0 0 1-.557-.408 26 26 0 0 1-.623-.488q-.27-.214-.537-.434-.303-.257-.598-.521-.26-.23-.517-.463c-.194-.181-.383-.37-.572-.556-.165-.162-.332-.322-.493-.489l-.087-.094a34.2 34.2 0 0 1 6.984-2.69 25.3 25.3 0 0 0 6.514 10.579q-.124-.03-.249-.061Zm6.335.887c-4.361-.62-8.185-5.172-10.59-11.894a51.8 51.8 0 0 1 10.59-1.247zm0-15.18c-3.78.05-7.544.499-11.23 1.34a51 51 0 0 1-2.007-13.6h13.237zm0-14.3H34.168a51 51 0 0 1 2.007-13.6c3.686.84 7.45 1.29 11.23 1.34zm0-14.299a51.7 51.7 0 0 1-10.59-1.247c2.405-6.722 6.229-11.274 10.59-11.894zm22.992-2.88a28.48 28.48 0 0 1 6.544 17.18H64.72a52.9 52.9 0 0 0-2.058-14.102 35.5 35.5 0 0 0 7.735-3.079ZM55.77 20.323c.215.053.428.12.64.183q.388.11.771.233.322.106.64.218a24 24 0 0 1 1.38.521l.728.306q.312.137.621.283.355.167.714.345c.203.102.407.204.611.315a28 28 0 0 1 1.946 1.142q.291.185.578.377.325.221.644.452a24 24 0 0 1 1.181.895q.271.212.536.434c.204.17.401.346.599.52.173.155.347.307.517.464.194.181.383.37.572.556.165.162.332.322.493.488q.044.049.087.095a34.2 34.2 0 0 1-6.984 2.69 25.3 25.3 0 0 0-6.522-10.578q.124.03.248.061Zm-6.326-.886c4.361.62 8.185 5.172 10.59 11.894a51.8 51.8 0 0 1-10.59 1.247zm0 15.18c3.78-.05 7.544-.5 11.23-1.34a51 51 0 0 1 2.007 13.6H49.444zm0 14.3H62.68a51 51 0 0 1-2.007 13.6 53.7 53.7 0 0 0-11.23-1.34zm0 27.44V63.216c3.563.05 7.112.467 10.59 1.247-2.405 6.722-6.229 11.274-10.59 11.894Zm19.488-8.62c-.161.167-.328.327-.492.489-.19.186-.379.375-.573.556-.17.158-.344.306-.517.464q-.295.264-.597.52c-.178.149-.36.292-.54.437-.205.163-.408.326-.618.483q-.28.21-.564.408c-.211.15-.423.306-.638.446q-.29.195-.583.382a20 20 0 0 1-.66.407c-.204.12-.398.236-.6.351a31 31 0 0 1-1.292.695 30 30 0 0 1-1.328.627l-.724.306q-.316.129-.633.252-.374.14-.75.27-.317.112-.639.218-.381.122-.77.232-.318.096-.641.185c-.083.021-.166.038-.248.06a25.3 25.3 0 0 0 6.514-10.578c2.42.638 4.762 1.539 6.984 2.688q-.049.055-.091.102Zm1.465-1.64a35.4 35.4 0 0 0-7.735-3.079 53 53 0 0 0 2.058-14.102H76.94a28.48 28.48 0 0 1-6.544 17.18Z" mask="url(#c)"/></g><path fill="#F1F7F9" d="M4.501 37.7h88.4v20.8h-88.4z"/><path stroke="#34777C" stroke-width="2.6" d="M.601 36.4h96.2v23.4H.601z"/><path fill="#35777C" d="M9.407 42.337v13.104H6.804V42.337zm12.255 9.319c0 2.53-2.256 3.95-5.15 3.95-3.33 0-5.37-1.602-5.37-4.023h2.64c0 1.074.892 1.838 2.73 1.838 1.456 0 2.439-.655 2.439-1.692 0-.91-.547-1.347-1.82-1.584l-2.057-.4c-2.348-.437-3.64-1.693-3.64-3.658 0-2.22 1.838-3.932 4.969-3.932 2.566 0 5.04 1.092 5.04 3.986h-2.565c0-1.31-1.074-1.856-2.512-1.856-1.383 0-2.257.619-2.257 1.565 0 .855.528 1.329 1.93 1.602l2.074.382c2.42.473 3.55 1.765 3.55 3.822m7.673 3.967c-3.803 0-6.388-2.766-6.388-6.715 0-3.968 2.585-6.753 6.388-6.753s6.37 2.785 6.37 6.753c0 3.949-2.566 6.715-6.37 6.715m0-2.457c2.275 0 3.586-1.656 3.586-4.258 0-2.621-1.31-4.296-3.586-4.296-2.293 0-3.621 1.675-3.621 4.296 0 2.62 1.328 4.258 3.621 4.258m16.125 2.275h-2.53v-10.52l-2.857 1.402v-2.511l2.858-1.475h2.53zm7.852-10.883h-6.115v-2.22h9.136v2.056c-2.73 3.44-4.422 7.517-4.895 11.047h-2.53c.436-3.53 2.147-7.553 4.404-10.883m9.527-2.403c3.603 0 5.66 2.803 5.66 6.734s-2.057 6.734-5.66 6.734c-3.586 0-5.57-2.802-5.57-6.734 0-3.93 1.984-6.734 5.57-6.734m3.057 6.734c0-2.784-1.128-4.495-3.057-4.495-1.911 0-2.985 1.71-2.985 4.495 0 2.803 1.074 4.496 2.985 4.496 1.929 0 3.057-1.693 3.057-4.496m10.561 1.693-2.985 2.475h5.479v2.384h-9.01V53.13l4.878-4.168c.983-.873 1.547-1.492 1.565-2.439.037-1.292-.782-2.002-2.038-2.002-1.22 0-2.093.856-2.148 2.13h-2.457c.055-2.894 2.148-4.496 4.623-4.496 2.657 0 4.696 1.456 4.696 4.15 0 1.911-1.11 3.076-2.603 4.277m9.013-4.168c2.639 0 4.495 1.784 4.495 4.514 0 2.948-2.13 4.695-4.914 4.695-2.475 0-4.714-1.383-4.787-4.24h2.421c.073 1.274.983 2.056 2.275 2.056 1.42 0 2.348-.982 2.348-2.475 0-1.474-.928-2.493-2.33-2.493-1.183 0-1.965.764-2.202 1.42h-2.402l1.365-7.554h7.57v2.203h-5.623l-.528 2.548c.473-.4 1.183-.674 2.312-.674M28.951 13.716l-.931.421a1.3 1.3 0 0 0-.33-.34 1.2 1.2 0 0 0-.853-.205 1.6 1.6 0 0 0-.465.133 1.45 1.45 0 0 0-.642.542 1.5 1.5 0 0 0-.228.835q-.002.48.258 1.056.265.585.628.904.365.315.776.375.413.056.825-.13a1.6 1.6 0 0 0 .402-.254q.173-.154.279-.345.107-.193.138-.417.033-.225-.026-.468l.934-.416a2.2 2.2 0 0 1 .082.785 2.2 2.2 0 0 1-.677 1.44 2.7 2.7 0 0 1-.769.51q-.672.304-1.34.23a2.4 2.4 0 0 1-1.24-.522q-.569-.45-.94-1.272-.374-.824-.332-1.548.04-.726.428-1.276.387-.55 1.054-.852.426-.192.846-.239t.812.056q.39.1.725.35.337.247.586.647M32.25 16.42l-1.609-5.362 3.487-1.046.244.814-2.515.755.436 1.455 2.335-.7.245.814-2.335.7.439 1.464 2.536-.761.244.814zM37.704 14.85l-.924-5.52 2.07-.346q.636-.107 1.104.042.471.149.759.51.29.36.379.887.089.531-.072.96-.16.426-.56.712-.402.284-1.038.39l-1.474.247-.14-.83 1.34-.225a1.6 1.6 0 0 0 .592-.204.74.74 0 0 0 .3-.364 1 1 0 0 0 .033-.515 1.03 1.03 0 0 0-.2-.482.75.75 0 0 0-.407-.259q-.255-.07-.63-.008L37.92 10l.784 4.684zm2.433-2.978 1.786 2.272-1.116.187-1.762-2.276zM43.214 9.2l-.032-.85 4.462-.17.033.849-1.729.066.181 4.744-1.005.038-.181-4.744zM50.998 8.302l-.324 5.587-1.012-.058.323-5.588zM52.754 14.006l.836-5.534 3.545.535-.127.84-2.543-.384-.227 1.503 2.3.347-.127.84-2.3-.347-.355 2.351zM60.574 9.76l-1.346 5.433-.984-.244 1.346-5.433zM61.253 15.689l1.851-5.282 3.436 1.204-.282.802-2.478-.869-.503 1.434 2.3.807-.28.802-2.3-.806-.506 1.441 2.499.876-.281.802zM68.294 18.475l-1.691-.858 2.533-4.991 1.726.876q.743.377 1.124.947.386.57.39 1.274t-.39 1.481q-.396.78-.97 1.194a2.25 2.25 0 0 1-1.268.438q-.693.025-1.454-.36m-.39-1.181.743.377q.522.264.967.251.446-.015.814-.306.37-.294.66-.867.292-.573.308-1.04a1.34 1.34 0 0 0-.231-.83q-.245-.364-.752-.621l-.77-.391z"/><g clip-path="url(#d)"><path fill="#35777C" d="m20.426 23.645-1.123 1.095.265 1.547a.18.18 0 0 1-.262.19l-1.39-.73-1.388.73a.18.18 0 0 1-.262-.19l.265-1.547-1.123-1.095a.18.18 0 0 1 .1-.308l1.553-.225.694-1.407c.06-.123.263-.123.324 0l.694 1.407 1.553.226a.18.18 0 0 1 .1.307"/></g><g clip-path="url(#e)"><path fill="#35777C" d="m20.426 71.745-1.124 1.095.266 1.547a.18.18 0 0 1-.262.19l-1.39-.73-1.388.73a.18.18 0 0 1-.262-.19l.265-1.547-1.123-1.095a.18.18 0 0 1 .1-.308l1.553-.225.694-1.408c.06-.123.263-.123.323 0l.695 1.408 1.553.225a.18.18 0 0 1 .1.308"/></g><g clip-path="url(#f)"><path fill="#35777C" d="m81.994 23.645-1.123 1.095.265 1.547a.18.18 0 0 1-.262.19l-1.39-.73-1.388.73a.18.18 0 0 1-.262-.19l.266-1.547-1.124-1.095a.18.18 0 0 1 .1-.308l1.553-.225.694-1.407c.06-.123.263-.123.324 0l.694 1.407 1.553.226a.18.18 0 0 1 .1.307"/></g><g clip-path="url(#g)"><path fill="#35777C" d="m81.994 71.745-1.123 1.095.265 1.547a.18.18 0 0 1-.262.19l-1.389-.73-1.389.73a.18.18 0 0 1-.262-.19l.266-1.547-1.124-1.095a.18.18 0 0 1 .1-.308l1.553-.225.694-1.408c.061-.123.263-.123.324 0l.694 1.408 1.553.225a.18.18 0 0 1 .1.308"/></g><path fill="#00797D" d="M29.116 80.918a1.5 1.5 0 0 0 .018-.439 1.2 1.2 0 0 0-.11-.4 1.2 1.2 0 0 0-.245-.344 1.6 1.6 0 0 0-.38-.275 1.45 1.45 0 0 0-.817-.174 1.52 1.52 0 0 0-.802.33q-.38.294-.674.85-.295.56-.325 1.043t.178.85a1.5 1.5 0 0 0 .624.587q.376.2.73.2.353 0 .644-.186.291-.189.482-.549l.186.139-1.344-.71.37-.7 2.009 1.06-.314.594q-.336.636-.852.957a2.1 2.1 0 0 1-1.122.322q-.605 0-1.219-.325-.684-.361-1.039-.941a2.4 2.4 0 0 1-.341-1.302q.013-.723.427-1.506.316-.6.734-.98.42-.382.901-.548.482-.17.986-.123.506.045.99.301.412.217.703.526.293.306.452.671.162.367.181.763a2.1 2.1 0 0 1-.118.791zM35.098 81.455l.956.34-1.223 3.445a1.96 1.96 0 0 1-.622.902 1.9 1.9 0 0 1-.985.407q-.568.07-1.21-.16-.648-.229-1.044-.64a1.9 1.9 0 0 1-.508-.937 1.97 1.97 0 0 1 .088-1.09l1.223-3.447.955.34-1.194 3.366q-.117.33-.064.638.055.31.268.55.215.24.578.368.362.129.68.079.32-.052.555-.258t.352-.537zM36.715 87.776l-1.06-.216 3.046-5.092 1.227.25.817 5.878-1.06-.216-.578-4.658-.043-.008zm.472-2.144 2.893.589-.163.798-2.892-.588zM42.08 88.787l.385-5.584 2.094.145q.644.045 1.064.298.424.254.62.672.198.417.161.951a1.83 1.83 0 0 1-.293.917 1.5 1.5 0 0 1-.71.562q-.456.181-1.1.138l-1.491-.103.058-.84 1.355.094q.375.025.623-.062a.74.74 0 0 0 .376-.283 1 1 0 0 0 .152-.494 1 1 0 0 0-.083-.515.75.75 0 0 0-.335-.346 1.5 1.5 0 0 0-.61-.155l-.928-.064-.327 4.739zm3.059-2.331 1.208 2.625-1.129-.078-1.183-2.623zM48.642 89.088l-1.08.067 1.621-5.708 1.25-.077 2.314 5.464-1.08.067-1.766-4.349-.044.003zm-.1-2.193 2.946-.181.05.812-2.946.182zM57.463 82.292l1.126 5.482-.883.181-3.35-3.203-.046.01.767 3.734-.993.204-1.127-5.483.89-.182 3.348 3.207.048-.01-.768-3.738zM58.78 82.869l-.284-.801 4.208-1.496.285.801-1.63.58 1.59 4.472-.948.337-1.59-4.473zM66.085 85.231l-2.523-4.996 3.25-1.641.382.759-2.344 1.184.685 1.356 2.176-1.099.383.759-2.176 1.099.689 1.363 2.364-1.193.383.758zM70.971 82.692l-3.112-4.651 3.025-2.025.473.707-2.183 1.46.845 1.263 2.026-1.356.473.707-2.026 1.355.85 1.27 2.2-1.473.473.707z"/></g><defs><clipPath id="a"><rect width="96.2" height="96.2" x=".601" fill="#fff" rx="48.1"/></clipPath><clipPath id="b"><path fill="#fff" d="M17.917 17.316h61.087v61.087H17.917z"/></clipPath><clipPath id="d"><path fill="#fff" d="M15.03 21.164h5.773v5.772H15.03z"/></clipPath><clipPath id="e"><path fill="#fff" d="M15.03 69.264h5.773v5.772H15.03z"/></clipPath><clipPath id="f"><path fill="#fff" d="M76.599 21.164h5.772v5.772h-5.772z"/></clipPath><clipPath id="g"><path fill="#fff" d="M76.599 69.264h5.772v5.772h-5.772z"/></clipPath></defs></svg>