<svg xmlns="http://www.w3.org/2000/svg" width="97" height="97" fill="none"><g clip-path="url(#a)"><circle cx="48.3" cy="48.1" r="46.8" fill="#F1F7F9" stroke="#34777C" stroke-width="2.6"/><g clip-path="url(#b)"><mask id="c" fill="#fff"><path d="M48.024 17.318q-1.644 0-3.278.177a29 29 0 0 0-3.52.596 30.54 30.54 0 0 0-16.189 9.645c-11.092 12.735-9.761 32.05 2.974 43.143 12.191 10.62 30.543 9.913 41.882-1.613q.574-.587 1.121-1.209a30.53 30.53 0 0 0 7.589-20.16c0-16.888-13.69-30.579-30.579-30.579M27.517 28.056c.161-.167.328-.327.492-.489.19-.186.378-.374.572-.554.17-.16.346-.312.52-.467.197-.174.392-.349.594-.517q.268-.223.541-.438.305-.246.618-.483.279-.21.564-.408c.21-.15.423-.306.638-.447a27 27 0 0 1 1.843-1.14 32 32 0 0 1 1.291-.695 30 30 0 0 1 1.328-.627l.725-.306q.316-.13.634-.253.37-.138.746-.269.319-.113.642-.219.381-.12.767-.231c.215-.062.428-.127.644-.185.083-.021.165-.038.248-.06a25.3 25.3 0 0 0-6.514 10.578 34.2 34.2 0 0 1-6.985-2.688q.049-.054.092-.102m-1.466 1.642a35.4 35.4 0 0 0 7.736 3.078 53 53 0 0 0-2.058 14.102H19.507a28.48 28.48 0 0 1 6.544-17.18m0 36.398a28.48 28.48 0 0 1-6.544-17.18H31.73a52.9 52.9 0 0 0 2.058 14.102 35.4 35.4 0 0 0-7.736 3.078M40.67 75.47c-.206-.052-.419-.12-.631-.182q-.388-.11-.772-.233-.322-.106-.639-.218a24 24 0 0 1-1.38-.521l-.729-.306a27 27 0 0 1-.62-.283 46 46 0 0 1-.714-.345 28.09 28.09 0 0 1-2.557-1.458 27 27 0 0 1-.578-.376q-.325-.222-.645-.453-.28-.198-.557-.408a26 26 0 0 1-.624-.488q-.271-.214-.536-.434c-.204-.17-.4-.346-.598-.521q-.262-.23-.517-.463c-.195-.181-.383-.37-.573-.556-.164-.162-.331-.322-.492-.489q-.044-.048-.088-.094a34.2 34.2 0 0 1 6.984-2.69 25.3 25.3 0 0 0 6.515 10.579q-.124-.03-.25-.061m6.335.887c-4.362-.62-8.185-5.172-10.59-11.894a51.8 51.8 0 0 1 10.59-1.247zm0-15.18c-3.78.05-7.545.499-11.23 1.34a51 51 0 0 1-2.008-13.6h13.238zm0-14.3H33.767a51 51 0 0 1 2.007-13.6c3.686.84 7.45 1.29 11.23 1.34zm0-14.299a51.7 51.7 0 0 1-10.59-1.247c2.405-6.722 6.228-11.274 10.59-11.894zm22.992-2.88a28.48 28.48 0 0 1 6.544 17.18H64.32a52.9 52.9 0 0 0-2.058-14.102 35.5 35.5 0 0 0 7.735-3.079M55.37 20.323c.214.053.427.12.64.183q.387.11.77.233.323.106.64.218a24 24 0 0 1 1.38.521l.729.306q.312.137.62.283.356.167.714.345c.204.102.408.204.612.315a28 28 0 0 1 1.945 1.142q.292.185.578.377.326.221.645.452a24 24 0 0 1 1.181.895q.271.212.536.434c.204.17.4.346.599.52.173.155.347.307.516.464.195.181.384.37.573.556.164.162.331.322.492.488q.044.049.088.095a34.2 34.2 0 0 1-6.984 2.69 25.3 25.3 0 0 0-6.523-10.578q.125.03.25.061m-6.327-.886c4.362.62 8.185 5.172 10.59 11.894a51.8 51.8 0 0 1-10.59 1.247zm0 15.18c3.78-.05 7.545-.5 11.231-1.34a51 51 0 0 1 2.007 13.6H49.043zm0 14.3h13.238a51 51 0 0 1-2.007 13.6 53.7 53.7 0 0 0-11.23-1.34zm0 27.44V63.216c3.564.05 7.113.467 10.59 1.247-2.405 6.722-6.228 11.274-10.59 11.894m19.488-8.62c-.16.167-.327.327-.491.489-.19.186-.38.375-.574.556-.17.158-.343.306-.517.464q-.294.264-.596.52c-.178.149-.36.292-.541.437q-.304.246-.618.483-.278.21-.564.408c-.21.15-.423.306-.638.446q-.288.195-.583.382a20 20 0 0 1-.66.407c-.203.12-.398.236-.599.351a31 31 0 0 1-1.292.695 30 30 0 0 1-1.328.627l-.725.306q-.314.129-.633.252-.372.14-.749.27-.317.112-.64.218a23 23 0 0 1-.769.232q-.32.096-.642.185c-.082.021-.165.038-.248.06a25.3 25.3 0 0 0 6.515-10.578c2.42.638 4.761 1.539 6.984 2.688-.034.036-.062.072-.092.102m1.466-1.64a35.4 35.4 0 0 0-7.735-3.079 53 53 0 0 0 2.058-14.102h12.22a28.48 28.48 0 0 1-6.543 17.18"/></mask><path fill="#34777C" stroke="#fff" stroke-width=".962" d="M48.024 17.318q-1.644 0-3.278.177a29 29 0 0 0-3.52.596 30.54 30.54 0 0 0-16.189 9.645c-11.092 12.735-9.761 32.05 2.974 43.143 12.191 10.62 30.543 9.913 41.882-1.613q.574-.587 1.121-1.209a30.53 30.53 0 0 0 7.589-20.16c0-16.888-13.69-30.579-30.579-30.579ZM27.517 28.056c.161-.167.328-.327.492-.489.19-.186.378-.374.572-.554.17-.16.346-.312.52-.467.197-.174.392-.349.594-.517q.268-.223.541-.438.305-.246.618-.483.279-.21.564-.408c.21-.15.423-.306.638-.447a27 27 0 0 1 1.843-1.14 32 32 0 0 1 1.291-.695 30 30 0 0 1 1.328-.627l.725-.306q.316-.13.634-.253.37-.138.746-.269.319-.113.642-.219.381-.12.767-.231c.215-.062.428-.127.644-.185.083-.021.165-.038.248-.06a25.3 25.3 0 0 0-6.514 10.578 34.2 34.2 0 0 1-6.985-2.688q.049-.054.092-.102Zm-1.466 1.642a35.4 35.4 0 0 0 7.736 3.078 53 53 0 0 0-2.058 14.102H19.507a28.48 28.48 0 0 1 6.544-17.18Zm0 36.398a28.48 28.48 0 0 1-6.544-17.18H31.73a52.9 52.9 0 0 0 2.058 14.102 35.4 35.4 0 0 0-7.736 3.078ZM40.67 75.47c-.206-.052-.419-.12-.631-.182q-.388-.11-.772-.233-.322-.106-.639-.218a24 24 0 0 1-1.38-.521l-.729-.306a27 27 0 0 1-.62-.283 46 46 0 0 1-.714-.345 28.09 28.09 0 0 1-2.557-1.458 27 27 0 0 1-.578-.376q-.325-.222-.645-.453-.28-.198-.557-.408a26 26 0 0 1-.624-.488q-.271-.214-.536-.434c-.204-.17-.4-.346-.598-.521q-.262-.23-.517-.463c-.195-.181-.383-.37-.573-.556-.164-.162-.331-.322-.492-.489q-.044-.048-.088-.094a34.2 34.2 0 0 1 6.984-2.69 25.3 25.3 0 0 0 6.515 10.579q-.124-.03-.25-.061Zm6.335.887c-4.362-.62-8.185-5.172-10.59-11.894a51.8 51.8 0 0 1 10.59-1.247zm0-15.18c-3.78.05-7.545.499-11.23 1.34a51 51 0 0 1-2.008-13.6h13.238zm0-14.3H33.767a51 51 0 0 1 2.007-13.6c3.686.84 7.45 1.29 11.23 1.34zm0-14.299a51.7 51.7 0 0 1-10.59-1.247c2.405-6.722 6.228-11.274 10.59-11.894zm22.992-2.88a28.48 28.48 0 0 1 6.544 17.18H64.32a52.9 52.9 0 0 0-2.058-14.102 35.5 35.5 0 0 0 7.735-3.079ZM55.37 20.323c.214.053.427.12.64.183q.387.11.77.233.323.106.64.218a24 24 0 0 1 1.38.521l.729.306q.312.137.62.283.356.167.714.345c.204.102.408.204.612.315a28 28 0 0 1 1.945 1.142q.292.185.578.377.326.221.645.452a24 24 0 0 1 1.181.895q.271.212.536.434c.204.17.4.346.599.52.173.155.347.307.516.464.195.181.384.37.573.556.164.162.331.322.492.488q.044.049.088.095a34.2 34.2 0 0 1-6.984 2.69 25.3 25.3 0 0 0-6.523-10.578q.125.03.25.061Zm-6.327-.886c4.362.62 8.185 5.172 10.59 11.894a51.8 51.8 0 0 1-10.59 1.247zm0 15.18c3.78-.05 7.545-.5 11.231-1.34a51 51 0 0 1 2.007 13.6H49.043zm0 14.3h13.238a51 51 0 0 1-2.007 13.6 53.7 53.7 0 0 0-11.23-1.34zm0 27.44V63.216c3.564.05 7.113.467 10.59 1.247-2.405 6.722-6.228 11.274-10.59 11.894Zm19.488-8.62c-.16.167-.327.327-.491.489-.19.186-.38.375-.574.556-.17.158-.343.306-.517.464q-.294.264-.596.52c-.178.149-.36.292-.541.437q-.304.246-.618.483-.278.21-.564.408c-.21.15-.423.306-.638.446q-.288.195-.583.382a20 20 0 0 1-.66.407c-.203.12-.398.236-.599.351a31 31 0 0 1-1.292.695 30 30 0 0 1-1.328.627l-.725.306q-.314.129-.633.252-.372.14-.749.27-.317.112-.64.218a23 23 0 0 1-.769.232q-.32.096-.642.185c-.082.021-.165.038-.248.06a25.3 25.3 0 0 0 6.515-10.578c2.42.638 4.761 1.539 6.984 2.688-.034.036-.062.072-.092.102Zm1.466-1.64a35.4 35.4 0 0 0-7.735-3.079 53 53 0 0 0 2.058-14.102h12.22a28.48 28.48 0 0 1-6.543 17.18Z" mask="url(#c)"/></g><path fill="#F1F7F9" d="M4.1 37.7h88.4v20.8H4.1z"/><path stroke="#34777C" stroke-width="2.6" d="M.2 36.4h96.2v23.4H.2z"/><path fill="#35777C" d="M8.722 42.337v13.104H6.12V42.337zm12.256 9.319c0 2.53-2.257 3.95-5.151 3.95-3.33 0-5.37-1.602-5.37-4.023h2.64c0 1.074.892 1.838 2.73 1.838 1.456 0 2.439-.655 2.439-1.692 0-.91-.546-1.347-1.82-1.584l-2.057-.4c-2.348-.437-3.64-1.693-3.64-3.658 0-2.22 1.838-3.932 4.969-3.932 2.566 0 5.041 1.092 5.041 3.986h-2.566c0-1.31-1.074-1.856-2.512-1.856-1.383 0-2.256.619-2.256 1.565 0 .855.527 1.329 1.929 1.602l2.075.382c2.42.473 3.549 1.765 3.549 3.822m7.673 3.967c-3.804 0-6.389-2.766-6.389-6.715 0-3.968 2.585-6.753 6.389-6.753 3.803 0 6.37 2.785 6.37 6.753 0 3.949-2.567 6.715-6.37 6.715m0-2.457c2.275 0 3.585-1.656 3.585-4.258 0-2.621-1.31-4.296-3.585-4.296-2.294 0-3.622 1.675-3.622 4.296 0 2.62 1.328 4.258 3.622 4.258m16.125 2.275h-2.53v-10.52l-2.858 1.402v-2.511l2.858-1.475h2.53zm9.455-6.734c1.31.437 2.112 1.584 2.112 3.022 0 2.438-2.002 3.894-4.769 3.894-3.003 0-4.84-1.801-4.84-4.44h2.492c0 1.528.983 2.256 2.24 2.256 1.346 0 2.147-.728 2.147-1.82s-.692-1.82-2.184-1.82h-1.092v-2.002h1c1.347 0 2.094-.655 2.094-1.747 0-1.128-.82-1.729-1.984-1.729-1.256 0-2.257.71-2.22 2.257h-2.403c0-2.639 1.693-4.423 4.696-4.423 2.675 0 4.55 1.384 4.55 3.731 0 1.238-.692 2.294-1.839 2.821m9.313 6.734V53.04h-6.06V50.8l5.933-8.463h2.711V50.8h1.73v2.239h-1.73v2.402zm-3.513-4.64h3.513v-4.878zm17.023-2.421c1.02.564 1.82 1.692 1.82 3.057 0 2.44-1.947 4.186-4.987 4.186-2.966 0-4.95-1.692-4.95-4.131 0-1.329.782-2.53 1.838-3.13a3.25 3.25 0 0 1-1.365-2.658c0-2.11 1.875-3.549 4.495-3.549s4.514 1.438 4.514 3.568a3.28 3.28 0 0 1-1.365 2.657m-3.13-4.295c-1.238 0-2.075.691-2.075 1.71 0 1.038.837 1.73 2.075 1.73 1.219 0 2.038-.692 2.038-1.73 0-1.019-.819-1.71-2.038-1.71m0 9.409c1.437 0 2.402-.819 2.402-2.038 0-1.165-.965-1.966-2.402-1.966s-2.421.8-2.421 1.966c0 1.219.983 2.038 2.42 2.038m11.43-7.08c2.639 0 4.495 1.784 4.495 4.514 0 2.948-2.13 4.695-4.914 4.695-2.475 0-4.714-1.383-4.787-4.24h2.421c.073 1.274.983 2.056 2.275 2.056 1.42 0 2.348-.982 2.348-2.475 0-1.474-.928-2.493-2.33-2.493-1.183 0-1.965.764-2.202 1.42h-2.402l1.365-7.554h7.57v2.203H83.57l-.528 2.548c.473-.4 1.183-.674 2.312-.674M28.55 13.716l-.93.421a1.3 1.3 0 0 0-.331-.34 1.2 1.2 0 0 0-.852-.205 1.6 1.6 0 0 0-.465.133 1.45 1.45 0 0 0-.643.542 1.5 1.5 0 0 0-.228.835q-.001.48.259 1.056.264.585.628.904.364.315.775.375.412.056.826-.13a1.6 1.6 0 0 0 .401-.254q.174-.154.28-.345.107-.193.138-.417.033-.225-.026-.468l.933-.416q.113.387.082.785a2.2 2.2 0 0 1-.677 1.44 2.7 2.7 0 0 1-.768.51q-.674.304-1.341.23a2.4 2.4 0 0 1-1.239-.522q-.57-.45-.94-1.272-.375-.824-.332-1.548.041-.726.427-1.276.388-.55 1.055-.852.426-.192.846-.239t.811.056q.39.1.725.35.337.247.587.647M31.85 16.42l-1.609-5.362 3.487-1.046.244.814-2.515.755.436 1.455 2.335-.7.245.814-2.335.7.439 1.464 2.536-.761.244.814zM37.304 14.85l-.924-5.52 2.07-.346q.636-.107 1.104.042.471.149.759.51.29.36.379.887.089.531-.072.96-.16.426-.56.712-.402.284-1.038.39l-1.474.247-.14-.83 1.34-.225a1.6 1.6 0 0 0 .593-.204.74.74 0 0 0 .299-.364 1 1 0 0 0 .033-.515 1.03 1.03 0 0 0-.2-.482.75.75 0 0 0-.407-.259q-.255-.07-.63-.008L37.52 10l.784 4.684zm2.433-2.978 1.786 2.272-1.116.187-1.761-2.276zM42.814 9.2l-.032-.85 4.462-.17.033.849-1.73.066.182 4.744-1.005.038-.181-4.744zM50.598 8.302l-.324 5.587-1.012-.058.323-5.588zM52.353 14.006l.836-5.534 3.546.535-.127.84-2.543-.384-.227 1.503 2.3.347-.127.84-2.3-.347-.355 2.351zM60.174 9.76l-1.346 5.433-.985-.244 1.347-5.433zM60.853 15.689l1.851-5.282 3.436 1.204-.282.802-2.478-.869-.503 1.434 2.3.807-.28.802-2.301-.806-.505 1.441 2.499.876-.282.802zM67.894 18.475l-1.691-.858 2.533-4.991 1.726.876q.743.377 1.124.947.386.57.39 1.274t-.39 1.481q-.396.78-.97 1.194a2.25 2.25 0 0 1-1.268.438q-.693.025-1.454-.36m-.39-1.181.743.377q.522.264.967.251.446-.015.815-.306.369-.294.66-.867.29-.573.307-1.04a1.34 1.34 0 0 0-.231-.83q-.245-.364-.752-.621l-.77-.391z"/><g clip-path="url(#d)"><path fill="#35777C" d="m20.025 23.645-1.123 1.095.265 1.547a.18.18 0 0 1-.262.19l-1.39-.73-1.388.73a.18.18 0 0 1-.262-.19l.266-1.547-1.124-1.095a.18.18 0 0 1 .1-.308l1.553-.225.694-1.407c.06-.123.263-.123.324 0l.694 1.407 1.553.226a.18.18 0 0 1 .1.307"/></g><g clip-path="url(#e)"><path fill="#35777C" d="m20.025 71.745-1.123 1.095.265 1.547a.18.18 0 0 1-.262.19l-1.39-.73-1.388.73a.18.18 0 0 1-.262-.19l.265-1.547-1.123-1.095a.18.18 0 0 1 .1-.308l1.553-.225.694-1.408c.06-.123.263-.123.324 0l.694 1.408 1.553.225a.18.18 0 0 1 .1.308"/></g><g clip-path="url(#f)"><path fill="#35777C" d="M81.593 23.645 80.47 24.74l.265 1.547a.18.18 0 0 1-.262.19l-1.389-.73-1.389.73a.18.18 0 0 1-.262-.19l.266-1.547-1.124-1.095a.18.18 0 0 1 .1-.308l1.553-.225.694-1.407c.061-.123.263-.123.324 0l.694 1.407 1.553.226a.18.18 0 0 1 .1.307"/></g><g clip-path="url(#g)"><path fill="#35777C" d="M81.593 71.745 80.47 72.84l.265 1.547a.18.18 0 0 1-.262.19l-1.389-.73-1.389.73a.18.18 0 0 1-.262-.19l.266-1.547-1.124-1.095a.18.18 0 0 1 .1-.308l1.553-.225.694-1.408c.061-.123.263-.123.324 0l.694 1.408 1.553.225a.18.18 0 0 1 .1.308"/></g><path fill="#00797D" d="M28.716 80.918q.042-.228.018-.439a1.2 1.2 0 0 0-.11-.4 1.2 1.2 0 0 0-.245-.343 1.6 1.6 0 0 0-.38-.275 1.45 1.45 0 0 0-.817-.175 1.52 1.52 0 0 0-.802.33q-.38.294-.674.85-.296.56-.325 1.043t.178.851q.209.367.624.586.377.2.729.2.354.001.645-.185.29-.19.481-.55l.187.14-1.344-.71.37-.701 2.008 1.06-.314.595q-.335.635-.851.956a2.1 2.1 0 0 1-1.122.323q-.606-.002-1.219-.326-.683-.36-1.04-.94a2.4 2.4 0 0 1-.34-1.303q.012-.723.426-1.505.317-.6.735-.982.42-.38.901-.547t.986-.122.99.3q.41.217.703.526.293.306.452.671.162.368.18.763a2.1 2.1 0 0 1-.117.791zM34.698 81.455l.955.34-1.223 3.446a1.96 1.96 0 0 1-.621.901 1.9 1.9 0 0 1-.986.408q-.565.068-1.21-.16-.647-.23-1.043-.64a1.9 1.9 0 0 1-.509-.937 1.97 1.97 0 0 1 .089-1.091l1.223-3.446.955.339-1.194 3.366q-.117.33-.064.638.054.31.268.551.214.238.577.367t.68.079a1.1 1.1 0 0 0 .556-.258q.235-.207.352-.536zM36.315 87.776l-1.06-.216L38.3 82.47l1.227.25.817 5.877-1.06-.216-.578-4.657-.043-.01zm.472-2.143 2.892.588-.162.798-2.892-.588zM41.68 88.787l.385-5.584 2.094.145q.643.045 1.064.298.423.254.62.673.198.416.16.95a1.83 1.83 0 0 1-.292.917 1.5 1.5 0 0 1-.71.562q-.457.182-1.1.138l-1.492-.103.058-.84 1.355.094q.377.026.624-.061a.74.74 0 0 0 .376-.284 1 1 0 0 0 .151-.494 1 1 0 0 0-.082-.515.75.75 0 0 0-.335-.346 1.5 1.5 0 0 0-.611-.155l-.927-.064-.327 4.739zm3.059-2.33 1.208 2.625-1.13-.078-1.183-2.624zM48.242 89.088l-1.08.067 1.621-5.708 1.25-.077 2.314 5.465-1.08.066-1.767-4.348-.043.002zm-.1-2.192 2.946-.182.05.813-2.946.182zM57.063 82.292l1.126 5.482-.883.182-3.351-3.204-.045.01.767 3.734-.993.204-1.127-5.483.889-.182 3.348 3.207.049-.01-.768-3.737zM58.38 82.87l-.285-.802 4.208-1.496.285.801-1.63.58 1.59 4.473-.948.337-1.59-4.473zM65.684 85.231l-2.523-4.996 3.25-1.64.383.758-2.345 1.184.685 1.356 2.176-1.099.383.759-2.176 1.099.689 1.364 2.364-1.194.383.758zM70.57 82.693l-3.112-4.652 3.026-2.025.472.707-2.183 1.46.846 1.263 2.025-1.355.473.706-2.026 1.356.85 1.27 2.2-1.473.473.706z"/></g><defs><clipPath id="a"><rect width="96.2" height="96.2" x=".2" fill="#fff" rx="48.1"/></clipPath><clipPath id="b"><path fill="#fff" d="M17.516 17.316h61.087v61.087H17.516z"/></clipPath><clipPath id="d"><path fill="#fff" d="M14.63 21.164h5.772v5.772H14.63z"/></clipPath><clipPath id="e"><path fill="#fff" d="M14.63 69.264h5.772v5.772H14.63z"/></clipPath><clipPath id="f"><path fill="#fff" d="M76.198 21.164h5.772v5.772h-5.772z"/></clipPath><clipPath id="g"><path fill="#fff" d="M76.198 69.264h5.772v5.772h-5.772z"/></clipPath></defs></svg>