<svg xmlns="http://www.w3.org/2000/svg" width="97" height="97" fill="none"><g clip-path="url(#a)"><circle cx="48.6" cy="48.1" r="46.8" fill="#F1F7F9" stroke="#34777C" stroke-width="2.6"/><g clip-path="url(#b)"><mask id="c" fill="#fff"><path d="M48.324 17.318q-1.643 0-3.278.177a29 29 0 0 0-3.52.596 30.54 30.54 0 0 0-16.189 9.645c-11.092 12.735-9.76 32.05 2.974 43.143 12.191 10.62 30.543 9.913 41.882-1.613q.575-.587 1.121-1.209a30.53 30.53 0 0 0 7.59-20.16c0-16.888-13.691-30.579-30.58-30.579M27.817 28.056c.161-.167.328-.327.493-.489.19-.186.378-.374.571-.554.17-.16.346-.312.52-.467.197-.174.393-.349.595-.517.177-.15.36-.294.54-.438q.306-.246.618-.483.28-.21.564-.408c.211-.15.423-.306.638-.447a27 27 0 0 1 1.843-1.14 32 32 0 0 1 1.291-.695 30 30 0 0 1 1.329-.627l.724-.306q.316-.13.634-.253.372-.138.746-.269.32-.113.643-.219.38-.12.766-.231c.215-.062.428-.127.644-.185.083-.021.166-.038.248-.06a25.3 25.3 0 0 0-6.514 10.578 34.2 34.2 0 0 1-6.984-2.688q.049-.054.091-.102m-1.465 1.642a35.4 35.4 0 0 0 7.735 3.078 52.9 52.9 0 0 0-2.058 14.102H19.808a28.48 28.48 0 0 1 6.544-17.18m0 36.398a28.48 28.48 0 0 1-6.544-17.18h12.221a52.9 52.9 0 0 0 2.058 14.102 35.4 35.4 0 0 0-7.735 3.078M40.97 75.47c-.206-.052-.419-.12-.63-.182q-.39-.11-.772-.233-.322-.106-.64-.218a24 24 0 0 1-1.38-.521l-.728-.306a27 27 0 0 1-.621-.283 46 46 0 0 1-.714-.345 28.09 28.09 0 0 1-2.557-1.458 27 27 0 0 1-.578-.376q-.325-.222-.645-.453a21 21 0 0 1-.557-.408q-.315-.24-.623-.488-.27-.214-.537-.434-.303-.257-.598-.521c-.173-.154-.348-.306-.517-.463-.194-.181-.383-.37-.573-.556-.164-.162-.33-.322-.492-.489l-.087-.094a34.2 34.2 0 0 1 6.984-2.69 25.3 25.3 0 0 0 6.514 10.579q-.124-.03-.249-.061m6.335.887c-4.361-.62-8.185-5.172-10.59-11.894a51.8 51.8 0 0 1 10.59-1.247zm0-15.18c-3.78.05-7.544.499-11.23 1.34a51 51 0 0 1-2.007-13.6h13.237zm0-14.3H34.068a51 51 0 0 1 2.007-13.6c3.685.84 7.45 1.29 11.23 1.34zm0-14.299a51.7 51.7 0 0 1-10.59-1.247c2.405-6.722 6.229-11.274 10.59-11.894zm22.992-2.88a28.48 28.48 0 0 1 6.544 17.18H64.62a52.9 52.9 0 0 0-2.058-14.102 35.5 35.5 0 0 0 7.735-3.079m-14.626-9.375c.214.053.426.12.639.183q.387.11.771.233.322.106.64.218a24 24 0 0 1 1.38.521l.728.306q.312.137.62.283.356.167.714.345c.204.102.408.204.612.315a28 28 0 0 1 1.946 1.142q.291.185.578.377.324.221.644.452a24 24 0 0 1 1.181.895q.271.212.536.434c.204.17.401.346.599.52.173.155.347.307.517.464.194.181.383.37.572.556.165.162.332.322.493.488q.044.049.087.095a34.2 34.2 0 0 1-6.984 2.69 25.3 25.3 0 0 0-6.522-10.578q.124.03.248.061m-6.327-.886c4.361.62 8.185 5.172 10.59 11.894a51.8 51.8 0 0 1-10.59 1.247zm0 15.18c3.78-.05 7.544-.5 11.23-1.34a51 51 0 0 1 2.007 13.6H49.344zm0 14.3H62.58a51 51 0 0 1-2.007 13.6 53.7 53.7 0 0 0-11.23-1.34zm0 27.44V63.216c3.563.05 7.112.467 10.59 1.247-2.405 6.722-6.229 11.274-10.59 11.894m19.488-8.62c-.161.167-.328.327-.492.489-.19.186-.379.375-.574.556-.169.158-.343.306-.516.464q-.295.264-.597.52c-.178.149-.36.292-.54.437q-.306.246-.619.483-.278.21-.563.408c-.211.15-.423.306-.638.446q-.29.195-.583.382a20 20 0 0 1-.66.407c-.204.12-.398.236-.6.351a31 31 0 0 1-1.292.695 30 30 0 0 1-1.328.627l-.724.306q-.317.129-.634.252-.372.14-.749.27-.317.112-.639.218-.381.122-.77.232-.318.096-.642.185c-.082.021-.165.038-.247.06a25.3 25.3 0 0 0 6.514-10.578c2.42.638 4.762 1.539 6.984 2.688q-.049.055-.091.102m1.465-1.64a35.4 35.4 0 0 0-7.735-3.079 53 53 0 0 0 2.058-14.102H76.84a28.48 28.48 0 0 1-6.544 17.18"/></mask><path fill="#34777C" stroke="#fff" stroke-width=".962" d="M48.324 17.318q-1.643 0-3.278.177a29 29 0 0 0-3.52.596 30.54 30.54 0 0 0-16.189 9.645c-11.092 12.735-9.76 32.05 2.974 43.143 12.191 10.62 30.543 9.913 41.882-1.613q.575-.587 1.121-1.209a30.53 30.53 0 0 0 7.59-20.16c0-16.888-13.691-30.579-30.58-30.579ZM27.817 28.056c.161-.167.328-.327.493-.489.19-.186.378-.374.571-.554.17-.16.346-.312.52-.467.197-.174.393-.349.595-.517.177-.15.36-.294.54-.438q.306-.246.618-.483.28-.21.564-.408c.211-.15.423-.306.638-.447a27 27 0 0 1 1.843-1.14 32 32 0 0 1 1.291-.695 30 30 0 0 1 1.329-.627l.724-.306q.316-.13.634-.253.372-.138.746-.269.32-.113.643-.219.38-.12.766-.231c.215-.062.428-.127.644-.185.083-.021.166-.038.248-.06a25.3 25.3 0 0 0-6.514 10.578 34.2 34.2 0 0 1-6.984-2.688q.049-.054.091-.102Zm-1.465 1.642a35.4 35.4 0 0 0 7.735 3.078 52.9 52.9 0 0 0-2.058 14.102H19.808a28.48 28.48 0 0 1 6.544-17.18Zm0 36.398a28.48 28.48 0 0 1-6.544-17.18h12.221a52.9 52.9 0 0 0 2.058 14.102 35.4 35.4 0 0 0-7.735 3.078ZM40.97 75.47c-.206-.052-.419-.12-.63-.182q-.39-.11-.772-.233-.322-.106-.64-.218a24 24 0 0 1-1.38-.521l-.728-.306a27 27 0 0 1-.621-.283 46 46 0 0 1-.714-.345 28.09 28.09 0 0 1-2.557-1.458 27 27 0 0 1-.578-.376q-.325-.222-.645-.453a21 21 0 0 1-.557-.408q-.315-.24-.623-.488-.27-.214-.537-.434-.303-.257-.598-.521c-.173-.154-.348-.306-.517-.463-.194-.181-.383-.37-.573-.556-.164-.162-.33-.322-.492-.489l-.087-.094a34.2 34.2 0 0 1 6.984-2.69 25.3 25.3 0 0 0 6.514 10.579q-.124-.03-.249-.061Zm6.335.887c-4.361-.62-8.185-5.172-10.59-11.894a51.8 51.8 0 0 1 10.59-1.247zm0-15.18c-3.78.05-7.544.499-11.23 1.34a51 51 0 0 1-2.007-13.6h13.237zm0-14.3H34.068a51 51 0 0 1 2.007-13.6c3.685.84 7.45 1.29 11.23 1.34zm0-14.299a51.7 51.7 0 0 1-10.59-1.247c2.405-6.722 6.229-11.274 10.59-11.894zm22.992-2.88a28.48 28.48 0 0 1 6.544 17.18H64.62a52.9 52.9 0 0 0-2.058-14.102 35.5 35.5 0 0 0 7.735-3.079Zm-14.626-9.375c.214.053.426.12.639.183q.387.11.771.233.322.106.64.218a24 24 0 0 1 1.38.521l.728.306q.312.137.62.283.356.167.714.345c.204.102.408.204.612.315a28 28 0 0 1 1.946 1.142q.291.185.578.377.324.221.644.452a24 24 0 0 1 1.181.895q.271.212.536.434c.204.17.401.346.599.52.173.155.347.307.517.464.194.181.383.37.572.556.165.162.332.322.493.488q.044.049.087.095a34.2 34.2 0 0 1-6.984 2.69 25.3 25.3 0 0 0-6.522-10.578q.124.03.248.061Zm-6.327-.886c4.361.62 8.185 5.172 10.59 11.894a51.8 51.8 0 0 1-10.59 1.247zm0 15.18c3.78-.05 7.544-.5 11.23-1.34a51 51 0 0 1 2.007 13.6H49.344zm0 14.3H62.58a51 51 0 0 1-2.007 13.6 53.7 53.7 0 0 0-11.23-1.34zm0 27.44V63.216c3.563.05 7.112.467 10.59 1.247-2.405 6.722-6.229 11.274-10.59 11.894Zm19.488-8.62c-.161.167-.328.327-.492.489-.19.186-.379.375-.574.556-.169.158-.343.306-.516.464q-.295.264-.597.52c-.178.149-.36.292-.54.437q-.306.246-.619.483-.278.21-.563.408c-.211.15-.423.306-.638.446q-.29.195-.583.382a20 20 0 0 1-.66.407c-.204.12-.398.236-.6.351a31 31 0 0 1-1.292.695 30 30 0 0 1-1.328.627l-.724.306q-.317.129-.634.252-.372.14-.749.27-.317.112-.639.218-.381.122-.77.232-.318.096-.642.185c-.082.021-.165.038-.247.06a25.3 25.3 0 0 0 6.514-10.578c2.42.638 4.762 1.539 6.984 2.688q-.049.055-.091.102Zm1.465-1.64a35.4 35.4 0 0 0-7.735-3.079 53 53 0 0 0 2.058-14.102H76.84a28.48 28.48 0 0 1-6.544 17.18Z" mask="url(#c)"/></g><path fill="#F1F7F9" d="M4.401 37.7h88.4v20.8h-88.4z"/><path stroke="#34777C" stroke-width="2.6" d="M.501 36.4h96.2v23.4H.501z"/><path fill="#35777C" d="M9.307 42.337v13.104H6.704V42.337zm12.255 9.319c0 2.53-2.257 3.95-5.15 3.95-3.331 0-5.37-1.602-5.37-4.023h2.64c0 1.074.891 1.838 2.73 1.838 1.456 0 2.438-.655 2.438-1.692 0-.91-.546-1.347-1.82-1.584l-2.056-.4c-2.348-.437-3.64-1.693-3.64-3.658 0-2.22 1.838-3.932 4.968-3.932 2.567 0 5.042 1.092 5.042 3.986h-2.566c0-1.31-1.074-1.856-2.512-1.856-1.383 0-2.257.619-2.257 1.565 0 .855.528 1.329 1.93 1.602l2.074.382c2.42.473 3.55 1.765 3.55 3.822m7.673 3.967c-3.803 0-6.388-2.766-6.388-6.715 0-3.968 2.584-6.753 6.388-6.753s6.37 2.785 6.37 6.753c0 3.949-2.566 6.715-6.37 6.715m0-2.457c2.275 0 3.586-1.656 3.586-4.258 0-2.621-1.31-4.296-3.586-4.296-2.293 0-3.622 1.675-3.622 4.296 0 2.62 1.33 4.258 3.622 4.258m16.125 2.275h-2.53v-10.52l-2.857 1.402v-2.511l2.857-1.475h2.53zm7.91 0V53.04h-6.062V50.8l5.934-8.463h2.711V50.8h1.73v2.239h-1.73v2.402zm-3.514-4.64h3.513v-4.878zm14.493-8.646c3.604 0 5.66 2.803 5.66 6.734s-2.056 6.734-5.66 6.734c-3.585 0-5.569-2.802-5.569-6.734 0-3.93 1.984-6.734 5.57-6.734m3.058 6.734c0-2.784-1.129-4.495-3.058-4.495-1.91 0-2.984 1.71-2.984 4.495 0 2.803 1.073 4.496 2.984 4.496 1.93 0 3.058-1.693 3.058-4.496m9.632-6.734c3.604 0 5.66 2.803 5.66 6.734s-2.056 6.734-5.66 6.734c-3.585 0-5.569-2.802-5.569-6.734 0-3.93 1.984-6.734 5.57-6.734m3.058 6.734c0-2.784-1.128-4.495-3.058-4.495-1.91 0-2.984 1.71-2.984 4.495 0 2.803 1.073 4.496 2.984 4.496 1.93 0 3.058-1.693 3.058-4.496m8.997 6.552h-2.53v-10.52l-2.857 1.402v-2.511l2.857-1.475h2.53zM28.851 13.716l-.931.421a1.3 1.3 0 0 0-.33-.34 1.2 1.2 0 0 0-.853-.205 1.6 1.6 0 0 0-.465.133 1.45 1.45 0 0 0-.642.542 1.5 1.5 0 0 0-.228.835q-.002.48.258 1.056.265.585.628.904.365.315.776.375.413.056.825-.13a1.6 1.6 0 0 0 .402-.254q.172-.154.279-.345.107-.193.138-.417.034-.225-.026-.468l.934-.416q.112.387.082.785a2.2 2.2 0 0 1-.678 1.44 2.7 2.7 0 0 1-.768.51q-.672.304-1.341.23a2.4 2.4 0 0 1-1.238-.522q-.57-.45-.942-1.272-.373-.824-.33-1.548.04-.726.427-1.276t1.054-.852q.426-.192.846-.239t.811.056q.39.1.726.35.337.247.586.647M32.15 16.42l-1.609-5.362 3.487-1.046.244.814-2.515.755.436 1.455 2.335-.7.244.814-2.335.7.44 1.464 2.536-.761.244.814zM37.604 14.85l-.924-5.52 2.07-.346q.636-.107 1.104.042.471.149.759.51.29.36.378.887.09.531-.072.96-.158.426-.56.712-.4.284-1.037.39l-1.474.247-.14-.83 1.34-.225a1.6 1.6 0 0 0 .592-.204.74.74 0 0 0 .3-.364 1 1 0 0 0 .033-.515 1.03 1.03 0 0 0-.2-.482.75.75 0 0 0-.407-.259q-.255-.07-.63-.008L37.82 10l.784 4.684zm2.433-2.978 1.785 2.272-1.115.187-1.762-2.276zM43.114 9.2l-.032-.85 4.462-.17.033.849-1.73.066.182 4.744-1.005.038-.181-4.744zM50.897 8.302l-.323 5.587-1.012-.058.323-5.588zM52.654 14.006l.835-5.534 3.546.535-.127.84-2.543-.384-.227 1.503 2.3.347-.127.84-2.3-.347-.355 2.351zM60.474 9.76l-1.346 5.433-.984-.244 1.346-5.433zM61.153 15.689l1.851-5.282 3.436 1.204-.282.802-2.478-.869-.503 1.434 2.3.807-.28.802-2.301-.806-.505 1.441 2.499.876-.281.802zM68.194 18.475l-1.691-.858 2.533-4.991 1.725.876q.743.377 1.125.947.386.57.39 1.274t-.39 1.481q-.396.78-.97 1.194a2.25 2.25 0 0 1-1.268.438q-.693.025-1.454-.36m-.39-1.181.743.377q.522.264.967.251.446-.015.814-.306.37-.294.66-.867.292-.573.308-1.04a1.34 1.34 0 0 0-.231-.83q-.245-.364-.752-.621l-.77-.391z"/><g clip-path="url(#d)"><path fill="#35777C" d="m20.326 23.645-1.124 1.095.266 1.547a.18.18 0 0 1-.262.19l-1.39-.73-1.388.73a.18.18 0 0 1-.262-.19l.265-1.547-1.124-1.095a.18.18 0 0 1 .1-.308l1.553-.225.695-1.407c.06-.123.263-.123.323 0l.695 1.407 1.553.226a.18.18 0 0 1 .1.307"/></g><g clip-path="url(#e)"><path fill="#35777C" d="m20.326 71.745-1.124 1.095.266 1.547a.18.18 0 0 1-.262.19l-1.39-.73-1.389.73a.18.18 0 0 1-.262-.19l.266-1.547-1.124-1.095a.18.18 0 0 1 .1-.308l1.553-.225.695-1.408c.06-.123.263-.123.323 0l.695 1.408 1.553.225a.18.18 0 0 1 .1.308"/></g><g clip-path="url(#f)"><path fill="#35777C" d="M81.894 23.645 80.77 24.74l.266 1.547a.18.18 0 0 1-.262.19l-1.39-.73-1.388.73a.18.18 0 0 1-.262-.19L78 24.74l-1.123-1.095a.18.18 0 0 1 .1-.308l1.553-.225.694-1.407c.06-.123.263-.123.324 0l.694 1.407 1.553.226a.18.18 0 0 1 .1.307"/></g><g clip-path="url(#g)"><path fill="#35777C" d="m81.894 71.745-1.123 1.095.265 1.547a.18.18 0 0 1-.262.19l-1.389-.73-1.39.73a.18.18 0 0 1-.262-.19L78 72.84l-1.123-1.095a.18.18 0 0 1 .1-.308l1.553-.225.694-1.408c.061-.123.263-.123.324 0l.694 1.408 1.553.225a.18.18 0 0 1 .1.308"/></g><path fill="#00797D" d="M29.015 80.918q.044-.228.019-.439a1.2 1.2 0 0 0-.11-.4 1.2 1.2 0 0 0-.245-.343 1.6 1.6 0 0 0-.38-.275 1.45 1.45 0 0 0-.817-.175 1.52 1.52 0 0 0-.802.33q-.381.294-.674.85-.297.56-.325 1.043-.03.482.178.851a1.5 1.5 0 0 0 .624.586q.376.2.729.2.354.001.644-.185.292-.19.482-.55l.186.14-1.343-.71.37-.701 2.008 1.06-.314.595q-.336.635-.851.956a2.1 2.1 0 0 1-1.122.323q-.605-.002-1.22-.326-.683-.36-1.038-.94a2.4 2.4 0 0 1-.342-1.303q.015-.723.427-1.505.316-.6.735-.982.42-.38.9-.547.483-.168.986-.122.505.045.991.3.41.217.703.526.292.306.452.671.162.368.18.763.02.398-.117.791zM34.998 81.455l.955.34-1.223 3.446a1.96 1.96 0 0 1-.621.901 1.9 1.9 0 0 1-.986.408q-.565.068-1.21-.16-.647-.23-1.043-.64a1.9 1.9 0 0 1-.509-.937 1.97 1.97 0 0 1 .089-1.091l1.223-3.446.955.339-1.194 3.366q-.117.33-.065.638.056.31.27.551.213.238.576.367.364.129.68.079a1.1 1.1 0 0 0 .556-.258q.235-.207.352-.536zM36.614 87.776l-1.06-.216L38.6 82.47l1.226.25.818 5.877-1.06-.216-.578-4.657-.043-.01zm.473-2.143 2.892.588-.162.798-2.893-.588zM41.98 88.787l.385-5.584 2.094.145q.644.045 1.064.298.423.254.62.673.198.416.161.95a1.83 1.83 0 0 1-.293.917 1.5 1.5 0 0 1-.71.562q-.456.182-1.1.138l-1.491-.103.058-.84 1.355.094q.375.026.623-.061a.74.74 0 0 0 .376-.284 1 1 0 0 0 .152-.494 1 1 0 0 0-.083-.515.75.75 0 0 0-.335-.346 1.5 1.5 0 0 0-.61-.155l-.928-.064-.327 4.739zm3.059-2.33 1.208 2.625-1.129-.078-1.183-2.624zM48.542 89.088l-1.08.067 1.621-5.708 1.25-.077 2.314 5.465-1.08.066-1.766-4.348-.044.002zm-.1-2.192 2.946-.182.05.813-2.946.182zM57.363 82.292l1.126 5.482-.883.182-3.35-3.204-.046.01.767 3.734-.993.204-1.127-5.483.89-.182 3.348 3.207.048-.01-.768-3.737zM58.68 82.87l-.284-.802 4.207-1.496.285.801-1.63.58 1.59 4.473-.947.337-1.59-4.473zM65.984 85.231l-2.523-4.996 3.25-1.64.383.758-2.345 1.184.685 1.356 2.177-1.099.383.759-2.177 1.099.69 1.364 2.363-1.194.383.758zM70.871 82.693l-3.113-4.652 3.026-2.025.472.707-2.182 1.46.845 1.263 2.026-1.355.473.706-2.027 1.356.85 1.27 2.201-1.473.473.706z"/></g><defs><clipPath id="a"><rect width="96.2" height="96.2" x=".5" fill="#fff" rx="48.1"/></clipPath><clipPath id="b"><path fill="#fff" d="M17.817 17.316h61.087v61.087H17.817z"/></clipPath><clipPath id="d"><path fill="#fff" d="M14.93 21.164h5.773v5.772H14.93z"/></clipPath><clipPath id="e"><path fill="#fff" d="M14.93 69.264h5.773v5.772H14.93z"/></clipPath><clipPath id="f"><path fill="#fff" d="M76.498 21.164h5.772v5.772h-5.772z"/></clipPath><clipPath id="g"><path fill="#fff" d="M76.499 69.264h5.772v5.772h-5.772z"/></clipPath></defs></svg>